<?xml version="1.0" encoding="utf-8"?>
<!-- Generator: Adobe Illustrator 22.1.0, SVG Export Plug-In . SVG Version: 6.00 Build 0)  -->
<svg version="1.1" xmlns="http://www.w3.org/2000/svg" xmlns:xlink="http://www.w3.org/1999/xlink" x="0px" y="0px"
	 viewBox="0 0 60 60" style="enable-background:new 0 0 60 60;" xml:space="preserve">
<style type="text/css">
	.st0{display:none;}
	.st1{display:inline;fill:#FFFFFF;}
	.st2{fill:#D6000F;}
	.st3{fill:#FFFFFF;}
	.st4{font-family:'LiHeiPro';}
	.st5{font-size:9.6372px;}
	.st6{display:inline;}
	.st7{fill:#9E9E9F;}
	.st8{fill:none;stroke:#E50012;stroke-width:0.1481;stroke-miterlimit:10;}
	.st9{display:inline;fill:#D6000F;}
	.st10{font-size:9.008px;}
</style>
<g id="copy_2" class="st0">
	<path class="st1" d="M32,25.8c-0.6,0.6-0.6,1.5,0,2.1c0,0,0,0,0,0c2.4,2.4,2.4,6.3,0,8.7L19.5,49.2c-2.4,2.4-6.3,2.4-8.6,0
		c0,0,0,0,0,0l-1.9-1.9c-2.4-2.4-2.4-6.3,0-8.7L21.5,26c0.6-0.6,0.6-1.5,0-2.1c-0.6-0.6-1.5-0.6-2.1,0c0,0,0,0,0,0L6.9,36.5
		c-3.5,3.6-3.5,9.3,0,12.9l1.9,1.9c3.5,3.5,9.3,3.5,12.8,0c0,0,0,0,0,0l12.5-12.6c3.5-3.6,3.5-9.3,0-12.9
		C33.5,25.3,32.6,25.3,32,25.8C32,25.8,32,25.8,32,25.8z M54.2,9.3l-1.9-1.9c-3.5-3.5-9.3-3.5-12.8,0c0,0,0,0,0,0L26.9,20
		c-3.5,3.6-3.5,9.3,0,12.9c0.6,0.6,1.5,0.6,2.1,0c0.6-0.6,0.6-1.5,0-2.1c0,0,0,0,0,0c-2.4-2.4-2.4-6.3,0-8.7L41.5,9.5
		c2.4-2.4,6.3-2.4,8.6,0c0,0,0,0,0,0l1.9,1.9c2.4,2.4,2.4,6.3,0,8.7L39.6,32.7c-0.6,0.6-0.6,1.5,0,2.1c0.3,0.3,0.6,0.4,1,0.4
		c0.4,0,0.8-0.2,1-0.4l12.5-12.6C57.7,18.6,57.7,12.9,54.2,9.3z"/>
</g>
<g id="圖層_2">
	<g>
		<circle class="st2" cx="29.5" cy="29.9" r="28.7"/>
	</g>
	<g>
		<g>
			<path class="st3" d="M17.2,39c-0.1,0-0.2,0-0.3,0c-0.9-0.2-1.5-1-1.4-1.9l2.3-14.2c0.2-0.9,1-1.5,1.9-1.4c0.9,0.2,1.5,1,1.4,1.9
				l-2.3,14.2C18.7,38.4,18,39,17.2,39z"/>
		</g>
		<g>
			<path class="st3" d="M22.4,35.3c-0.9,0-1.7-0.8-1.7-1.7c0-0.9,0.8-1.7,1.7-1.7c3.6,0,6.5-2.9,6.5-6.5s-2.9-6.5-6.5-6.5
				c-1.4,0-2.8,0.5-3.9,1.3c-0.7,0.6-1.8,0.4-2.4-0.3c-0.6-0.7-0.4-1.8,0.3-2.4c1.7-1.3,3.8-2,6-2c5.5,0,9.9,4.4,9.9,9.9
				S27.9,35.3,22.4,35.3z"/>
		</g>
		<g>
			<path class="st3" d="M34.5,42.6c-0.5,0-1.1-0.3-1.4-0.7c-0.5-0.8-0.3-1.8,0.4-2.3C38.2,36.3,41,31,41,25.4
				c0-5.6-2.8-10.9-7.4-14.1c-0.8-0.5-1-1.6-0.4-2.3c0.5-0.8,1.6-1,2.3-0.4c5.5,3.8,8.9,10.1,8.9,16.8c0,6.7-3.3,13-8.9,16.9
				C35.2,42.5,34.9,42.6,34.5,42.6z"/>
		</g>
		<g>
			<path class="st3" d="M30,38.7c-0.6,0-1.1-0.3-1.5-0.8c-0.5-0.8-0.2-1.8,0.6-2.3c3.6-2.1,5.9-6,5.9-10.2c0-4.2-2.2-8.1-5.8-10.2
				c-0.8-0.5-1.1-1.5-0.6-2.3c0.5-0.8,1.5-1.1,2.3-0.6c4.6,2.7,7.5,7.7,7.5,13.1c0,5.4-2.9,10.4-7.6,13.1
				C30.5,38.7,30.2,38.7,30,38.7z"/>
		</g>
	</g>
	<text transform="matrix(1 0 0 1 20.3608 52.7266)" class="st3 st4 st5">感應</text>
</g>
<g id="圖層_3" class="st0">
	<g class="st6">
		<circle class="st3" cx="30" cy="30.4" r="29"/>
		<path class="st2" d="M30,2.8c15.2,0,27.6,12.4,27.6,27.6S45.2,58,30,58S2.4,45.6,2.4,30.4S14.8,2.8,30,2.8 M30,1
			C13.8,1,0.6,14.2,0.6,30.4c0,16.2,13.2,29.4,29.4,29.4s29.4-13.2,29.4-29.4C59.4,14.2,46.2,1,30,1L30,1z"/>
		<g>
			<path class="st2" d="M36.9,15.3H23.1c-1.6,0-2.9-1.3-2.9-2.9V5.1c0-1.6,1.3-2.9,2.9-2.9h13.9c1.6,0,2.9,1.3,2.9,2.9v7.3
				C39.9,14,38.6,15.3,36.9,15.3z"/>
			<g>
				<path class="st3" d="M24,13V8.2h0.9l2,3.2V8.2h0.9V13h-1l-1.9-3.1V13H24z"/>
				<path class="st3" d="M28.8,13V8.2H32V9h-2.3v1.1h2V11h-2v2H28.8z"/>
				<path class="st3" d="M35.9,11.2l0.9,0.3c-0.1,0.5-0.4,0.9-0.7,1.2c-0.3,0.3-0.8,0.4-1.3,0.4c-0.6,0-1.2-0.2-1.6-0.6
					c-0.4-0.4-0.6-1-0.6-1.8c0-0.8,0.2-1.4,0.6-1.8c0.4-0.4,0.9-0.7,1.6-0.7c0.6,0,1.1,0.2,1.4,0.5c0.2,0.2,0.4,0.5,0.5,0.9l-1,0.2
					c-0.1-0.2-0.2-0.4-0.4-0.6C35.3,9,35.1,9,34.8,9c-0.4,0-0.6,0.1-0.9,0.4c-0.2,0.3-0.3,0.7-0.3,1.2c0,0.6,0.1,1,0.3,1.3
					c0.2,0.3,0.5,0.4,0.8,0.4c0.3,0,0.5-0.1,0.7-0.2C35.7,11.9,35.8,11.6,35.9,11.2z"/>
			</g>
		</g>
		<g>
			<g>
				<g>
					<g>
						<path class="st2" d="M6.3,34.6c0,0-0.1,0-0.1,0c-0.4-0.1-0.7-0.4-0.6-0.8l1-6.2c0.1-0.4,0.4-0.7,0.8-0.6
							c0.4,0.1,0.7,0.4,0.6,0.8l-1,6.2C7,34.3,6.7,34.6,6.3,34.6z"/>
					</g>
				</g>
				<g>
					<g>
						<path class="st2" d="M8.6,32.9c-0.4,0-0.7-0.3-0.7-0.7s0.3-0.7,0.7-0.7c1.6,0,2.9-1.3,2.9-2.9s-1.3-2.9-2.9-2.9
							c-0.6,0-1.2,0.2-1.7,0.6c-0.3,0.2-0.8,0.2-1-0.1c-0.2-0.3-0.2-0.8,0.1-1c0.8-0.6,1.7-0.9,2.6-0.9c2.4,0,4.3,1.9,4.3,4.3
							S11,32.9,8.6,32.9z"/>
					</g>
				</g>
				<g>
					<g>
						<path class="st2" d="M13.9,36.1c-0.2,0-0.5-0.1-0.6-0.3c-0.2-0.3-0.1-0.8,0.2-1c2-1.4,3.3-3.7,3.3-6.2c0-2.5-1.2-4.8-3.2-6.2
							c-0.3-0.2-0.4-0.7-0.2-1c0.2-0.3,0.7-0.4,1-0.2c2.4,1.7,3.9,4.4,3.9,7.4c0,3-1.5,5.7-3.9,7.4C14.2,36.1,14.1,36.1,13.9,36.1z"
							/>
					</g>
				</g>
				<g>
					<g>
						<path class="st2" d="M11.9,34.4c-0.3,0-0.5-0.1-0.6-0.4c-0.2-0.4-0.1-0.8,0.3-1c1.6-0.9,2.6-2.6,2.6-4.5c0-1.8-1-3.5-2.6-4.5
							c-0.3-0.2-0.5-0.7-0.3-1c0.2-0.3,0.7-0.5,1-0.3c2,1.2,3.3,3.4,3.3,5.7c0,2.4-1.3,4.6-3.3,5.7C12.2,34.4,12.1,34.4,11.9,34.4z"
							/>
					</g>
				</g>
			</g>
			<g>
				<g>
					<g>
						<path class="st7" d="M20.9,32.8l-0.3-0.7c1-0.3,1.7-0.7,2.1-1.4H21l0.1-0.7h1.8l0-0.1l0.1-0.8h-0.8c-0.1,0.2-0.4,0.5-0.7,0.8
							c-0.1-0.2-0.3-0.4-0.4-0.5c0.4-0.4,0.8-0.9,1-1.5l0.6,0.3l-0.2,0.3h2.6l-0.1,0.6h-1.4L23.6,30l0,0.1h1.6L25,30.8h-1.5
							c0.5,0.3,0.9,0.7,1.3,1l-0.5,0.6c-0.3-0.4-0.8-0.7-1.3-1.2C22.5,32,21.8,32.5,20.9,32.8z M27,36.2h-5.7c-0.1,0-0.1,0-0.1-0.1
							l0.4-3.4c0-0.1,0-0.1,0.1-0.1h5.7c0.1,0,0.1,0,0.1,0.1l-0.4,3.4C27.1,36.2,27.1,36.2,27,36.2z M22.1,34.8L22,35.5c0,0,0,0,0,0
							h4.4l0,0l0.1-0.7H22.1z M26.6,34.1l0.1-0.7c0,0,0,0,0,0h-4.4c0,0,0,0,0,0l-0.1,0.7H26.6z M28.2,32.2h-2.9
							c-0.1,0-0.1,0-0.1-0.1l0.4-3.4c0-0.1,0-0.1,0.1-0.1h2.9c0.1,0,0.1,0,0.1,0.1L28.3,32C28.3,32.1,28.2,32.2,28.2,32.2z
							 M26.3,29.2C26.3,29.2,26.2,29.2,26.3,29.2L26,31.5l0,0h1.6l0,0l0.3-2.3l0,0H26.3z"/>
					</g>
					<g>
						<path class="st7" d="M30.5,35c-0.4,0.6-0.8,1.1-1.3,1.4c-0.1-0.3-0.2-0.4-0.4-0.6c0.4-0.3,0.7-0.7,1-1.2L30.5,35z M36,34.1
							c0,0.1-0.1,0.2-0.2,0.2h-5.4l0.1-0.6h4.9c0,0,0.1,0,0.1-0.1l0-0.3h-6.1l0.1-0.6h6.1l0-0.4c0,0,0-0.1-0.1-0.1h-4.9l0.1-0.6h5.5
							c0.1,0,0.2,0.1,0.2,0.2l-0.1,0.8h1.2l-0.1,0.6h-1.2L36,34.1z M29.7,31.3v-0.6l1.6,0l0.1-0.4h-1.4l0.1-0.6h1.4l0-0.4h-1.6
							l0.1-0.6h1.6l0.1-0.5h0.7l-0.1,0.5h1.3l-0.1,0.6h-1.3l0,0.4h1.1l-0.1,0.6H32l0,0.4c0.5-0.1,0.9-0.1,1.2-0.2l0,0.6
							c-0.3,0.1-0.7,0.1-1.3,0.2l0,0.3h-0.7l0-0.3L29.7,31.3z M34.2,35.7c0.1,0,0.2,0,0.3-0.1c0.1,0,0.1-0.1,0.2-0.2l0.1-0.5
							l0.7,0.1c-0.1,0.7-0.2,1-0.3,1.1c-0.2,0.2-0.5,0.3-0.9,0.3h-2.8c-0.2,0-0.4,0-0.5-0.1c-0.2-0.2-0.3-0.5-0.2-1l0.1-0.8h0.7
							l-0.1,0.7c0,0.2,0,0.3,0,0.4c0,0.1,0.2,0.1,0.4,0.2h1.3c-0.2-0.3-0.4-0.6-0.6-0.8l0.5-0.5c0.2,0.2,0.4,0.5,0.7,0.9l-0.5,0.4
							H34.2z M33.5,31.1l0.1-0.6h1.6l0-0.4h-1.3l0.1-0.6h1.3l0-0.4h-1.4l0.1-0.6h1.4l0.1-0.5h0.7l-0.1,0.5h1.5l-0.1,0.6H36l0,0.4
							h1.3l-0.1,0.6h-1.3l0,0.4h1.6l-0.1,0.6h-1.6l0,0.3h-0.7l0-0.3H33.5z M36.2,34.5c0.2,0.4,0.5,0.9,0.7,1.5l-0.7,0.3
							c-0.2-0.6-0.4-1.1-0.6-1.4L36.2,34.5z"/>
					</g>
					<g>
						<path class="st7" d="M39.4,36.3h-0.7l0.4-3.5c-0.2,0.4-0.4,0.7-0.5,1l-0.7-0.2c0.6-1,1.1-2,1.4-3.1h-0.9l0.1-0.8h1l0.2-1.7
							h0.7l-0.2,1.7h0.7l-0.1,0.8h-0.7l0,0.2c0.3,0.5,0.5,1.1,0.8,1.7l-0.7,0.4l-0.3-0.7L39.4,36.3z M41.8,34.9
							c-0.6,0.6-1.2,1.1-1.7,1.3l-0.4-0.6c0.6-0.3,1.2-0.7,1.6-1.1L41.8,34.9z M40.4,34.2l0.1-0.7h5.5l-0.1,0.7h-2.3l-0.2,1.4
							c0,0.3-0.2,0.6-0.5,0.8c-0.3,0.2-0.8,0.2-1.5-0.1l0.1-0.8l0.5,0.2c0.3,0.1,0.4,0.1,0.6,0c0.1,0,0.1-0.1,0.1-0.3l0.1-1.2H40.4z
							 M46.2,29.6C46.2,29.6,46.2,29.7,46.2,29.6L46,31.8c0,0.1,0,0.1-0.1,0.1H41c-0.1,0-0.1,0-0.1-0.1l0.2-2c0-0.1,0-0.1,0.1-0.1
							h1.3l0.1-0.5h-1.6l0.1-0.7h5.4l-0.1,0.7h-1.6l-0.1,0.5H46.2z M45.7,32.3L45.6,33h-4.5l0.1-0.7H45.7z M42.6,30.3h-0.7
							c0,0,0,0,0,0l-0.1,0.8l0,0h0.7L42.6,30.3z M44,30.3h-0.7l-0.1,0.8h0.7L44,30.3z M44.2,29.1h-0.7l-0.1,0.5h0.7L44.2,29.1z
							 M44.6,34.5c0.4,0.3,0.8,0.7,1.2,1.2l-0.6,0.6c-0.4-0.5-0.8-0.9-1.1-1.2L44.6,34.5z M44.6,31.2h0.7l0,0l0.1-0.8l0,0h-0.7
							L44.6,31.2z"/>
					</g>
					<g>
						<path class="st7" d="M46.6,36.1l0-0.6l1.8-0.1l0.1-0.6h-1.6l0.1-0.6h1.6l0.1-0.5H47l0.1-0.6h1.6l0.1-0.4h-1.6l0.1-0.5h1.6
							l0.1-0.4h-1.7l0.1-0.6h2.2l-0.6-0.6c-0.2,0.2-0.4,0.3-0.7,0.5l-0.3-0.5c0.5-0.2,0.9-0.5,1.2-0.9l0.4,0.4l-0.2,0.2l0.6,0.4
							l-0.4,0.5h3.1l0-1.2l0.7,0.1l0,1.2H55l-0.1,0.6h-1.8c0,0.8,0.1,1.4,0.1,1.9c0.1-0.2,0.3-0.7,0.6-1.4l0.6,0.2
							c-0.3,0.8-0.6,1.5-1.1,2.1l0.2,0.8c0.1,0.2,0.1,0.3,0.1,0.3c0,0,0.1-0.1,0.1-0.2c0.1-0.3,0.1-0.6,0.1-1l0.6,0.2
							c-0.1,0.7-0.2,1.2-0.4,1.6c-0.1,0.1-0.2,0.2-0.2,0.2c-0.1,0-0.2,0-0.2,0c-0.2,0-0.3-0.1-0.4-0.3c-0.2-0.3-0.3-0.6-0.4-1
							c-0.6,0.5-1.1,1-1.5,1.2l-0.5-0.5l0.1-0.1L46.6,36.1z M48.4,29.3c-0.2,0.3-0.5,0.5-0.9,0.8c-0.1-0.3-0.2-0.4-0.3-0.6
							c0.5-0.3,0.9-0.8,1.3-1.4l0.5,0.4l-0.1,0.2h2.2L51,29.3h-1l0.2,0.3L49.7,30l-0.5-0.7H48.4z M49.8,35.3l0.4-3.5h-0.7L49,35.3
							L49.8,35.3z M50.4,31.1L50,30.7c0.4-0.3,0.7-0.6,1-1l0.5,0.3l-0.1,0.2l0.7,0.4l-0.3,0.5l-0.7-0.5L50.4,31.1z M52.7,34.4
							c-0.1-0.8-0.2-1.7-0.3-2.7h-1.6l-0.1,0.4h1.4l-0.1,0.5h-1.4l-0.1,0.4H52L52,33.7h-1.4l-0.1,0.5h1.4l-0.1,0.6h-1.4l-0.1,0.5
							l1.2-0.1l0,0.3l0.8-0.7L52.7,34.4z M52,29.3L52,29.3c-0.2,0.3-0.5,0.5-0.7,0.7c-0.1-0.3-0.2-0.4-0.3-0.5
							c0.4-0.3,0.8-0.8,1.1-1.3l0.6,0.4l-0.1,0.2h2.8l-0.1,0.6h-1.6l0.1,0.4l-0.6,0.3l-0.2-0.7H52z M54,29.8
							c0.2,0.1,0.5,0.4,0.8,0.6l-0.5,0.5c-0.3-0.3-0.5-0.5-0.7-0.6L54,29.8z"/>
					</g>
				</g>
				<g>
					<g>
						<path class="st2" d="M20.9,32.8l-0.3-0.7c1-0.3,1.7-0.7,2.1-1.4H21l0.1-0.7h1.8l0-0.1l0.1-0.8h-0.8c-0.1,0.2-0.4,0.5-0.7,0.8
							c-0.1-0.2-0.3-0.4-0.4-0.5c0.4-0.4,0.8-0.9,1-1.5l0.6,0.3l-0.2,0.3h2.6l-0.1,0.6h-1.4L23.6,30l0,0.1h1.6L25,30.8h-1.5
							c0.5,0.3,0.9,0.7,1.3,1l-0.5,0.6c-0.3-0.4-0.8-0.7-1.3-1.2C22.5,32,21.8,32.5,20.9,32.8z M27,36.2h-5.7c-0.1,0-0.1,0-0.1-0.1
							l0.4-3.4c0-0.1,0-0.1,0.1-0.1h5.7c0.1,0,0.1,0,0.1,0.1l-0.4,3.4C27.1,36.2,27.1,36.2,27,36.2z M22.1,34.8L22,35.5c0,0,0,0,0,0
							h4.4l0,0l0.1-0.7H22.1z M26.6,34.1l0.1-0.7c0,0,0,0,0,0h-4.4c0,0,0,0,0,0l-0.1,0.7H26.6z M28.2,32.2h-2.9
							c-0.1,0-0.1,0-0.1-0.1l0.4-3.4c0-0.1,0-0.1,0.1-0.1h2.9c0.1,0,0.1,0,0.1,0.1L28.3,32C28.3,32.1,28.2,32.2,28.2,32.2z
							 M26.3,29.2C26.3,29.2,26.2,29.2,26.3,29.2L26,31.5l0,0h1.6l0,0l0.3-2.3l0,0H26.3z"/>
						<path class="st2" d="M22.1,28.1c-0.2,0.6-0.6,1.1-1,1.5c0.1,0.1,0.3,0.3,0.4,0.5c0.3-0.3,0.5-0.5,0.7-0.8H23L22.9,30l0,0.1
							h-1.8L21,30.8h1.6c-0.4,0.6-1,1.1-2.1,1.4l0.3,0.7c0.9-0.4,1.7-0.9,2.2-1.5c0.5,0.4,0.9,0.8,1.3,1.2l0.5-0.6
							c-0.4-0.4-0.9-0.7-1.3-1H25l0.1-0.7h-1.6l0-0.1l0.1-0.8h1.4l0.1-0.6h-2.6l0.2-0.3L22.1,28.1L22.1,28.1z M28.6,28.5h-2.9
							c-0.1,0-0.1,0-0.1,0.1L25.2,32c0,0.1,0,0.1,0.1,0.1h2.9c0.1,0,0.1,0,0.1-0.1L28.6,28.5C28.7,28.6,28.7,28.5,28.6,28.5
							L28.6,28.5z M26,31.5L26,31.5l0.2-2.3c0,0,0,0,0,0h1.6l0,0l-0.3,2.3l0,0H26L26,31.5z M27.4,32.6h-5.7c-0.1,0-0.1,0-0.1,0.1
							l-0.4,3.4c0,0.1,0,0.1,0.1,0.1H27c0.1,0,0.1,0,0.1-0.1l0.4-3.4C27.5,32.6,27.5,32.6,27.4,32.6L27.4,32.6z M22.2,34.1l0.1-0.7
							c0,0,0,0,0,0c0,0,0,0,0,0h4.4c0,0,0,0,0,0l-0.1,0.7H22.2L22.2,34.1z M26.5,34.8l-0.1,0.7l0,0h-4.4c0,0,0,0,0,0l0.1-0.7H26.5
							L26.5,34.8z"/>
					</g>
					<g>
						<path class="st2" d="M30.5,35c-0.4,0.6-0.8,1.1-1.3,1.4c-0.1-0.3-0.2-0.4-0.4-0.6c0.4-0.3,0.7-0.7,1-1.2L30.5,35z M36,34.1
							c0,0.1-0.1,0.2-0.2,0.2h-5.4l0.1-0.6h4.9c0,0,0.1,0,0.1-0.1l0-0.3h-6.1l0.1-0.6h6.1l0-0.4c0,0,0-0.1-0.1-0.1h-4.9l0.1-0.6h5.5
							c0.1,0,0.2,0.1,0.2,0.2l-0.1,0.8h1.2l-0.1,0.6h-1.2L36,34.1z M29.7,31.3v-0.6l1.6,0l0.1-0.4h-1.4l0.1-0.6h1.4l0-0.4h-1.6
							l0.1-0.6h1.6l0.1-0.5h0.7l-0.1,0.5h1.3l-0.1,0.6h-1.3l0,0.4h1.1l-0.1,0.6H32l0,0.4c0.5-0.1,0.9-0.1,1.2-0.2l0,0.6
							c-0.3,0.1-0.7,0.1-1.3,0.2l0,0.3h-0.7l0-0.3L29.7,31.3z M34.2,35.7c0.1,0,0.2,0,0.3-0.1c0.1,0,0.1-0.1,0.2-0.2l0.1-0.5
							l0.7,0.1c-0.1,0.7-0.2,1-0.3,1.1c-0.2,0.2-0.5,0.3-0.9,0.3h-2.8c-0.2,0-0.4,0-0.5-0.1c-0.2-0.2-0.3-0.5-0.2-1l0.1-0.8h0.7
							l-0.1,0.7c0,0.2,0,0.3,0,0.4c0,0.1,0.2,0.1,0.4,0.2h1.3c-0.2-0.3-0.4-0.6-0.6-0.8l0.5-0.5c0.2,0.2,0.4,0.5,0.7,0.9l-0.5,0.4
							H34.2z M33.5,31.1l0.1-0.6h1.6l0-0.4h-1.3l0.1-0.6h1.3l0-0.4h-1.4l0.1-0.6h1.4l0.1-0.5h0.7l-0.1,0.5h1.5l-0.1,0.6H36l0,0.4
							h1.3l-0.1,0.6h-1.3l0,0.4h1.6l-0.1,0.6h-1.6l0,0.3h-0.7l0-0.3H33.5z M36.2,34.5c0.2,0.4,0.5,0.9,0.7,1.5l-0.7,0.3
							c-0.2-0.6-0.4-1.1-0.6-1.4L36.2,34.5z"/>
						<path class="st2" d="M36.2,28.1h-0.7l-0.1,0.5H34l-0.1,0.6h1.4l0,0.4H34l-0.1,0.6h1.3l0,0.4h-1.6l-0.1,0.6h1.6l0,0.3h0.7
							l0-0.3h1.6l0.1-0.6h-1.6l0-0.4h1.3l0.1-0.6H36l0-0.4h1.5l0.1-0.6h-1.5L36.2,28.1L36.2,28.1z M32.3,28.1h-0.7l-0.1,0.5H30
							l-0.1,0.6h1.6l0,0.4H30l-0.1,0.6h1.4l-0.1,0.4l-1.6,0v0.6l1.5-0.1l0,0.3h0.7l0-0.3c0.6-0.1,1-0.1,1.3-0.2l0-0.6
							c-0.3,0.1-0.7,0.1-1.2,0.2l0-0.4h1.1l0.1-0.6h-1.1l0-0.4h1.3l0.1-0.6h-1.3L32.3,28.1L32.3,28.1z M36.1,31.7h-5.5l-0.1,0.6h4.9
							c0,0,0.1,0,0.1,0.1l0,0.4h-6.1l-0.1,0.6h6.1l0,0.3c0,0,0,0.1-0.1,0.1h-4.9l-0.1,0.6h5.4c0.1,0,0.2-0.1,0.2-0.2l0.1-0.8h1.2
							l0.1-0.6h-1.2l0.1-0.8C36.3,31.8,36.2,31.7,36.1,31.7L36.1,31.7z M33.2,34.4l-0.5,0.5c0.2,0.2,0.4,0.4,0.6,0.8H32
							c-0.2,0-0.3-0.1-0.4-0.2c0-0.1,0-0.2,0-0.4l0.1-0.7H31l-0.1,0.8c-0.1,0.5,0,0.8,0.2,1c0.1,0.1,0.3,0.1,0.5,0.1h2.8
							c0.4,0,0.7-0.1,0.9-0.3c0.1-0.1,0.2-0.5,0.3-1.1l-0.7-0.1l-0.1,0.5c-0.1,0.1-0.1,0.1-0.2,0.2c-0.1,0-0.2,0.1-0.3,0.1h-0.9
							l0.5-0.4C33.6,34.9,33.4,34.6,33.2,34.4L33.2,34.4z M36.2,34.5L35.6,35c0.2,0.3,0.4,0.8,0.6,1.4l0.7-0.3
							C36.7,35.4,36.5,34.9,36.2,34.5L36.2,34.5z M29.9,34.6c-0.3,0.5-0.6,0.9-1,1.2c0.1,0.1,0.2,0.3,0.4,0.6
							c0.4-0.3,0.9-0.8,1.3-1.4L29.9,34.6L29.9,34.6z"/>
					</g>
					<g>
						<path class="st2" d="M39.4,36.3h-0.7l0.4-3.5c-0.2,0.4-0.4,0.7-0.5,1l-0.7-0.2c0.6-1,1.1-2,1.4-3.1h-0.9l0.1-0.8h1l0.2-1.7
							h0.7l-0.2,1.7h0.7l-0.1,0.8h-0.7l0,0.2c0.3,0.5,0.5,1.1,0.8,1.7l-0.7,0.4l-0.3-0.7L39.4,36.3z M41.8,34.9
							c-0.6,0.6-1.2,1.1-1.7,1.3l-0.4-0.6c0.6-0.3,1.2-0.7,1.6-1.1L41.8,34.9z M40.4,34.2l0.1-0.7h5.5l-0.1,0.7h-2.3l-0.2,1.4
							c0,0.3-0.2,0.6-0.5,0.8c-0.3,0.2-0.8,0.2-1.5-0.1l0.1-0.8l0.5,0.2c0.3,0.1,0.4,0.1,0.6,0c0.1,0,0.1-0.1,0.1-0.3l0.1-1.2H40.4z
							 M46.2,29.6C46.2,29.6,46.2,29.7,46.2,29.6L46,31.8c0,0.1,0,0.1-0.1,0.1H41c-0.1,0-0.1,0-0.1-0.1l0.2-2c0-0.1,0-0.1,0.1-0.1
							h1.3l0.1-0.5h-1.6l0.1-0.7h5.4l-0.1,0.7h-1.6l-0.1,0.5H46.2z M45.7,32.3L45.6,33h-4.5l0.1-0.7H45.7z M42.6,30.3h-0.7
							c0,0,0,0,0,0l-0.1,0.8l0,0h0.7L42.6,30.3z M44,30.3h-0.7l-0.1,0.8h0.7L44,30.3z M44.2,29.1h-0.7l-0.1,0.5h0.7L44.2,29.1z
							 M44.6,34.5c0.4,0.3,0.8,0.7,1.2,1.2l-0.6,0.6c-0.4-0.5-0.8-0.9-1.1-1.2L44.6,34.5z M44.6,31.2h0.7l0,0l0.1-0.8l0,0h-0.7
							L44.6,31.2z"/>
						<path class="st2" d="M40.4,28.1h-0.7l-0.2,1.7h-1l-0.1,0.8h0.9c-0.3,1.1-0.8,2.1-1.4,3.1l0.7,0.2c0.2-0.3,0.4-0.6,0.5-1
							l-0.4,3.5h0.7l0.5-4.2l0.3,0.7l0.7-0.4c-0.2-0.6-0.5-1.1-0.8-1.7l0-0.2h0.7l0.1-0.8h-0.7L40.4,28.1L40.4,28.1z M46.5,28.4
							h-5.4l-0.1,0.7h1.6l-0.1,0.5h-1.3c-0.1,0-0.1,0-0.1,0.1l-0.2,2c0,0.1,0,0.1,0.1,0.1h4.8c0.1,0,0.1,0,0.1-0.1l0.2-2
							c0-0.1,0-0.1-0.1-0.1h-1.4l0.1-0.5h1.6L46.5,28.4L46.5,28.4z M44.2,29.1l-0.1,0.5h-0.7l0.1-0.5H44.2L44.2,29.1z M44.6,31.2
							l0.1-0.8h0.7l0,0l-0.1,0.8l0,0H44.6L44.6,31.2z M44,30.3l-0.1,0.8h-0.7l0.1-0.8H44L44,30.3z M42.6,30.3l-0.1,0.8h-0.7l0,0
							l0.1-0.8c0,0,0,0,0,0H42.6L42.6,30.3z M45.7,32.3h-4.5L41.1,33h4.5L45.7,32.3L45.7,32.3z M45.9,33.5h-5.5l-0.1,0.7h2.5
							l-0.1,1.2c0,0.1,0,0.2-0.1,0.3c-0.1,0-0.1,0.1-0.2,0.1c-0.1,0-0.2,0-0.3-0.1l-0.5-0.2l-0.1,0.8c0.4,0.1,0.8,0.2,1,0.2
							c0.2,0,0.4,0,0.5-0.1c0.3-0.2,0.4-0.4,0.5-0.8l0.2-1.4h2.3L45.9,33.5L45.9,33.5z M41.3,34.4c-0.4,0.5-0.9,0.9-1.6,1.1l0.4,0.6
							c0.5-0.2,1.1-0.6,1.7-1.3L41.3,34.4L41.3,34.4z M44.6,34.5L44,35.1c0.3,0.2,0.7,0.6,1.1,1.2l0.6-0.6
							C45.3,35.2,44.9,34.8,44.6,34.5L44.6,34.5z"/>
					</g>
					<g>
						<path class="st2" d="M46.6,36.1l0-0.6l1.8-0.1l0.1-0.6h-1.6l0.1-0.6h1.6l0.1-0.5H47l0.1-0.6h1.6l0.1-0.4h-1.6l0.1-0.5h1.6
							l0.1-0.4h-1.7l0.1-0.6h2.2l-0.6-0.6c-0.2,0.2-0.4,0.3-0.7,0.5l-0.3-0.5c0.5-0.2,0.9-0.5,1.2-0.9l0.4,0.4l-0.2,0.2l0.6,0.4
							l-0.4,0.5h3.1l0-1.2l0.7,0.1l0,1.2H55l-0.1,0.6h-1.8c0,0.8,0.1,1.4,0.1,1.9c0.1-0.2,0.3-0.7,0.6-1.4l0.6,0.2
							c-0.3,0.8-0.6,1.5-1.1,2.1l0.2,0.8c0.1,0.2,0.1,0.3,0.1,0.3c0,0,0.1-0.1,0.1-0.2c0.1-0.3,0.1-0.6,0.1-1l0.6,0.2
							c-0.1,0.7-0.2,1.2-0.4,1.6c-0.1,0.1-0.2,0.2-0.2,0.2c-0.1,0-0.2,0-0.2,0c-0.2,0-0.3-0.1-0.4-0.3c-0.2-0.3-0.3-0.6-0.4-1
							c-0.6,0.5-1.1,1-1.5,1.2l-0.5-0.5l0.1-0.1L46.6,36.1z M48.4,29.3c-0.2,0.3-0.5,0.5-0.9,0.8c-0.1-0.3-0.2-0.4-0.3-0.6
							c0.5-0.3,0.9-0.8,1.3-1.4l0.5,0.4l-0.1,0.2h2.2L51,29.3h-1l0.2,0.3L49.7,30l-0.5-0.7H48.4z M49.8,35.3l0.4-3.5h-0.7L49,35.3
							L49.8,35.3z M50.4,31.1L50,30.7c0.4-0.3,0.7-0.6,1-1l0.5,0.3l-0.1,0.2l0.7,0.4l-0.3,0.5l-0.7-0.5L50.4,31.1z M52.7,34.4
							c-0.1-0.8-0.2-1.7-0.3-2.7h-1.6l-0.1,0.4h1.4l-0.1,0.5h-1.4l-0.1,0.4H52L52,33.7h-1.4l-0.1,0.5h1.4l-0.1,0.6h-1.4l-0.1,0.5
							l1.2-0.1l0,0.3l0.8-0.7L52.7,34.4z M52,29.3L52,29.3c-0.2,0.3-0.5,0.5-0.7,0.7c-0.1-0.3-0.2-0.4-0.3-0.5
							c0.4-0.3,0.8-0.8,1.1-1.3l0.6,0.4l-0.1,0.2h2.8l-0.1,0.6h-1.6l0.1,0.4l-0.6,0.3l-0.2-0.7H52z M54,29.8
							c0.2,0.1,0.5,0.4,0.8,0.6l-0.5,0.5c-0.3-0.3-0.5-0.5-0.7-0.6L54,29.8z"/>
						<path class="st2" d="M48.5,28.1c-0.4,0.6-0.8,1-1.3,1.4c0.1,0.1,0.2,0.3,0.3,0.6c0.3-0.2,0.6-0.5,0.9-0.8h0.9l0.5,0.7l0.5-0.4
							l-0.2-0.3h1l0.1-0.6h-2.2l0.1-0.2L48.5,28.1L48.5,28.1z M52.1,28.1c-0.3,0.5-0.7,1-1.1,1.3c0.1,0.1,0.2,0.3,0.3,0.5
							c0.2-0.2,0.5-0.4,0.7-0.6l0,0h0.9l0.2,0.7l0.6-0.3l-0.1-0.4h1.6l0.1-0.6h-2.8l0.1-0.2L52.1,28.1L52.1,28.1z M48.9,29.6
							c-0.3,0.4-0.7,0.7-1.2,0.9l0.3,0.5c0.3-0.1,0.5-0.3,0.7-0.5l0.6,0.6h-2.2l-0.1,0.6h1.7l-0.1,0.4h-1.6l-0.1,0.5h1.6l-0.1,0.4
							h-1.6L47,33.7h1.6l-0.1,0.5h-1.6l-0.1,0.6h1.6l-0.1,0.6l-1.8,0.1l0,0.6l4.5-0.3l-0.1,0.1l0.5,0.5c0.4-0.3,0.9-0.7,1.5-1.2
							c0.1,0.4,0.2,0.8,0.4,1c0.1,0.2,0.3,0.3,0.4,0.3c0,0,0,0,0,0c0.1,0,0.1,0,0.2,0c0.1,0,0.2-0.1,0.2-0.2
							c0.2-0.3,0.3-0.9,0.4-1.6L54,34.5c0,0.4-0.1,0.7-0.1,1c0,0.1-0.1,0.2-0.1,0.2c0,0,0,0,0,0c0,0-0.1-0.1-0.1-0.3l-0.2-0.8
							c0.4-0.6,0.8-1.3,1.1-2.1l-0.6-0.2c-0.3,0.7-0.5,1.2-0.6,1.4c-0.1-0.5-0.1-1.2-0.1-1.9h1.8l0.1-0.6h-1.9l0-1.2l-0.7-0.1l0,1.2
							h-3.1l0.4-0.5l-0.6-0.4l0.2-0.2L48.9,29.6L48.9,29.6z M50.8,32.2l0.1-0.4h1.6c0,1,0.1,1.9,0.3,2.7l-0.3,0.3l-0.8,0.7l0-0.3
							l-1.2,0.1l0.1-0.5h1.4l0.1-0.6h-1.4l0.1-0.5H52l0.1-0.6h-1.4l0.1-0.4h1.4l0.1-0.5H50.8L50.8,32.2z M50.2,31.7l-0.4,3.5l-0.7,0
							l0.4-3.6H50.2L50.2,31.7z M50.9,29.7c-0.2,0.4-0.6,0.7-1,1l0.4,0.4l0.6-0.5l0.7,0.5l0.3-0.5l-0.7-0.4l0.1-0.2L50.9,29.7
							L50.9,29.7z M54,29.8l-0.5,0.6c0.2,0.1,0.4,0.3,0.7,0.6l0.5-0.5C54.5,30.1,54.2,29.9,54,29.8L54,29.8z"/>
					</g>
				</g>
			</g>
			<g>
				<g>
					<g>
						<g>
							<g>
								<path class="st2" d="M23.5,22.6h0.2c0.5,0,1,0,0.9,0.7C24.5,24,24,24,23.5,24h-0.2L23.5,22.6z M21.5,26.9h1.3l0.3-1.8h0.8
									c1.2,0,1.9-0.6,2.1-1.8c0.2-1.2-0.5-1.8-1.6-1.8h-2L21.5,26.9z"/>
							</g>
							<g>
								<path class="st2" d="M31.5,21.8L31.1,24h0c0.3-0.3,0.6-0.5,1-0.5c0.7,0,1,0.5,0.9,1.3l-0.3,1.9h-1l0.2-1.6
									c0.1-0.4,0.1-0.7-0.4-0.7c-0.4,0-0.6,0.4-0.6,0.7l-0.2,1.6h-1l0.7-4.9H31.5z"/>
							</g>
							<g>
								<path class="st2" d="M35.2,24.5c0.4,0,0.6,0.3,0.6,0.7c-0.1,0.4-0.3,0.7-0.8,0.7c-0.4,0-0.6-0.3-0.6-0.7
									C34.5,24.8,34.7,24.5,35.2,24.5z M35.3,23.5c-0.9,0-1.8,0.6-2,1.6c-0.2,1,0.6,1.6,1.5,1.6c0.9,0,1.8-0.6,2-1.6
									C36.9,24.1,36.2,23.5,35.3,23.5z"/>
							</g>
							<g>
								<path class="st2" d="M38.3,24L38.3,24c0.3-0.3,0.6-0.5,1-0.5c0.4,0,0.7,0.2,0.9,0.6c0.3-0.4,0.7-0.6,1.1-0.6
									c0.7,0,0.9,0.5,0.8,1.2l-0.3,1.9h-1l0.2-1.5c0-0.3,0.1-0.8-0.3-0.8c-0.5,0-0.6,0.5-0.6,0.8l-0.2,1.5h-1l0.2-1.5
									c0.1-0.3,0.1-0.9-0.3-0.9c-0.5,0-0.5,0.5-0.6,0.9l-0.2,1.5h-1l0.5-3h1L38.3,24z"/>
							</g>
							<g>
								<path class="st2" d="M43.4,24.7c0.1-0.3,0.4-0.5,0.7-0.5c0.3,0,0.5,0.2,0.5,0.5H43.4z M45.5,25.2c0.2-1-0.3-1.7-1.3-1.7
									c-0.9,0-1.7,0.6-1.8,1.6c-0.2,1,0.5,1.6,1.4,1.6c0.7,0,1.3-0.3,1.6-1h-1c-0.1,0.2-0.3,0.3-0.5,0.3c-0.4,0-0.6-0.2-0.5-0.7
									h2.1L45.5,25.2z"/>
							</g>
							<g>
								<g>
									<path class="st2" d="M29.9,23.4l0.2-1.6c-0.3-0.1-0.5-0.2-0.8-0.2l-0.2,1.3C29.4,22.9,29.7,23.1,29.9,23.4z"/>
								</g>
								<g>
									<path class="st2" d="M29.6,25.1c-0.3,0.3-0.6,0.5-1,0.5l-0.2,1.3c0.3,0,0.6-0.1,0.9-0.2L29.6,25.1z"/>
								</g>
							</g>
							<g>
								<path class="st2" d="M28.4,26.9l0.2-1.3c-0.1,0-0.1,0-0.2,0c-0.8,0-1.2-0.6-1.1-1.4c0.1-0.8,0.7-1.4,1.5-1.4
									c0.1,0,0.2,0,0.2,0l0.2-1.3c-0.1,0-0.2,0-0.3,0c-0.7,0-1.4,0.3-2,0.8c-0.5,0.5-0.9,1.2-1,1.9c-0.1,0.8,0,1.4,0.5,1.9
									c0.4,0.5,1,0.8,1.7,0.8C28.3,26.9,28.4,26.9,28.4,26.9z"/>
							</g>
						</g>
						<g>
							<path class="st2" d="M37.2,21.7c0.2,0,0.3,0.2,0.3,0.4c0,0.2-0.2,0.4-0.4,0.4c-0.2,0-0.3-0.2-0.3-0.4
								C36.9,21.9,37,21.7,37.2,21.7z M37.1,22.7c0.3,0,0.6-0.3,0.7-0.6c0-0.3-0.1-0.6-0.5-0.6c-0.3,0-0.6,0.3-0.7,0.6
								C36.6,22.4,36.8,22.7,37.1,22.7z"/>
						</g>
						<g>
							<path class="st2" d="M38.7,21.5h0.2l0.5,0.8h0l0.1-0.8h0.2l-0.2,1.2h-0.2l-0.5-0.8h0l-0.1,0.8h-0.2L38.7,21.5z"/>
						</g>
						<g>
							<path class="st2" d="M40.7,22.5h0.3l0,0.2h-0.5l0.2-1.2h0.2L40.7,22.5z"/>
						</g>
						<g>
							<path class="st2" d="M42.1,22.7h-0.2l0.2-1.2h0.2L42.1,22.7z"/>
						</g>
						<g>
							<path class="st2" d="M43.2,21.5h0.2l0.5,0.8h0l0.1-0.8h0.2L44,22.7h-0.2l-0.5-0.8h0l-0.1,0.8H43L43.2,21.5z"/>
						</g>
						<g>
							<path class="st2" d="M45.3,21.7l0,0.3h0.4l0,0.2h-0.4l0,0.3h0.4l0,0.2H45l0.2-1.2h0.6l0,0.2H45.3z"/>
						</g>
					</g>
				</g>
			</g>
		</g>
		<circle class="st8" cx="30" cy="30.4" r="29.4"/>
	</g>
	<polygon class="st9" points="3.1,39.3 57.2,39.3 53.9,46.3 50.6,50.4 45.3,54.7 38,57.7 32.2,58.6 24.8,58.3 15.1,55.2 7.7,48.8 
		4.6,43.4 	"/>
	<text transform="matrix(1 0 0 1 12.9099 50.5864)" class="st1 st4 st10">我要獲得</text>
</g>
</svg>
