<?xml version="1.0" encoding="utf-8"?>
<!-- Generator: Adobe Illustrator 22.1.0, SVG Export Plug-In . SVG Version: 6.00 Build 0)  -->
<svg version="1.1" id="圖層_1" xmlns="http://www.w3.org/2000/svg" xmlns:xlink="http://www.w3.org/1999/xlink" x="0px" y="0px"
	 viewBox="0 0 116 99" style="enable-background:new 0 0 116 99;" xml:space="preserve">
<style type="text/css">
	.st0{fill:#D6000F;}
	.st1{fill:#9D9D9E;}
	.st2{fill:none;stroke:#D6000F;stroke-width:2;stroke-linecap:round;stroke-miterlimit:10;}
	.st3{fill:none;stroke:#D6000F;stroke-width:0.75;stroke-linecap:round;stroke-miterlimit:10;}
	.st4{fill:none;stroke:#F6B42C;stroke-width:2;stroke-linecap:round;stroke-miterlimit:10;}
	.st5{fill:#FFFFFF;}
	.st6{fill:none;stroke:#FFFFFF;stroke-width:2;stroke-linecap:round;stroke-miterlimit:10;}
	.st7{fill:none;stroke:#FFFFFF;stroke-width:0.75;stroke-linecap:round;stroke-miterlimit:10;}
</style>
<g>
	<path class="st0" d="M62.8,62.4c-0.9-0.4-2.6-0.9-5-1.5c-3-0.7-3.8-1.2-4.1-1.4c-0.4-0.4-0.6-0.8-0.6-1.4c0-0.7,0.3-1.3,0.9-1.8
		c0.7-0.5,1.8-0.8,3.4-0.8c1.5,0,2.7,0.3,3.4,0.9c0.7,0.6,1.1,1.5,1.3,2.7l0.1,0.7l4.2-0.3l0-0.7c-0.1-1.4-0.5-2.7-1.2-3.9
		c-0.8-1.1-1.8-2-3.2-2.6c-0.4-0.2-0.8-0.3-1.3-0.4v-3H55v2.8c-0.7,0.1-1.4,0.3-2,0.6c-1.4,0.6-2.4,1.4-3.1,2.5
		c-0.7,1.1-1.1,2.3-1.1,3.5c0,1.2,0.3,2.2,0.9,3.1c0.6,0.9,1.5,1.7,2.6,2.3c0.9,0.5,2.3,0.9,4.4,1.4c2.5,0.6,3.5,0.9,3.9,1.1
		c0.8,0.3,1.4,0.7,1.7,1.1c0.3,0.4,0.5,0.9,0.5,1.4c0,0.5-0.2,1-0.5,1.5c-0.3,0.5-0.9,0.8-1.6,1.1c-0.8,0.3-1.7,0.5-2.7,0.5
		c-1.2,0-2.2-0.2-3.1-0.6c-0.9-0.4-1.5-0.9-1.9-1.5c-0.4-0.6-0.7-1.4-0.8-2.4L52,66.6l-4.1,0.4l0,0.7c0,1.6,0.5,3.1,1.3,4.4
		c0.8,1.3,2,2.3,3.5,2.9c0.7,0.3,1.4,0.5,2.2,0.7v3h5.6v-3c0.7-0.2,1.4-0.4,2-0.7c1.4-0.6,2.5-1.5,3.2-2.7c0.7-1.2,1.1-2.4,1.1-3.7
		c0-1.3-0.4-2.5-1-3.6C65.2,63.9,64.2,63,62.8,62.4z"/>
	<g>
		<path class="st0" d="M85,50.6l3.4-1c-2-6.7-6.3-12.7-12.1-16.8l-2.1,2.9C79.4,39.4,83.2,44.6,85,50.6z"/>
		<path class="st0" d="M27.9,49.7l3.5,1c1.7-5.8,5.4-11.1,10.4-14.7l-2.1-2.9C34,37.2,29.9,43.1,27.9,49.7z"/>
		<path class="st0" d="M44.9,85.2l-1.7,3.2c4.6,2.5,9.7,3.8,15,3.8c5.1,0,10.1-1.2,14.6-3.6l-1.7-3.2C63.1,89.6,52.9,89.5,44.9,85.2
			z"/>
		<path class="st0" d="M26.8,69.8c4.5,0,8.2-3.7,8.2-8.2c0-4.5-3.7-8.2-8.2-8.2s-8.2,3.7-8.2,8.2C18.6,66.1,22.3,69.8,26.8,69.8z"/>
		<path class="st0" d="M31.9,71.5H21.7c-4.8,0-8.6,3.9-8.6,8.6v9.8h27.4v-9.8C40.5,75.4,36.6,71.5,31.9,71.5z"/>
		<path class="st0" d="M81,61.6c0,4.5,3.7,8.2,8.2,8.2c4.5,0,8.2-3.7,8.2-8.2c0-4.5-3.7-8.2-8.2-8.2C84.7,53.4,81,57.1,81,61.6z"/>
		<path class="st0" d="M94.3,71.5H84.1c-4.8,0-8.6,3.9-8.6,8.6v9.8h27.4v-9.8C102.9,75.4,99,71.5,94.3,71.5z"/>
		<path class="st0" d="M58,23.2c4.5,0,8.2-3.7,8.2-8.2c0-4.5-3.7-8.2-8.2-8.2c-4.5,0-8.2,3.7-8.2,8.2C49.8,19.5,53.5,23.2,58,23.2z"
			/>
		<path class="st0" d="M71.7,33.6c0-4.8-3.9-8.6-8.6-8.6H52.9c-4.8,0-8.6,3.9-8.6,8.6v9.8h27.4V33.6z"/>
	</g>
</g>
</svg>
