<?xml version="1.0" encoding="utf-8"?>
<!-- Generator: Adobe Illustrator 22.1.0, SVG Export Plug-In . SVG Version: 6.00 Build 0)  -->
<svg version="1.1" id="圖層_1" xmlns="http://www.w3.org/2000/svg" xmlns:xlink="http://www.w3.org/1999/xlink" x="0px" y="0px"
	 viewBox="0 0 116 99" style="enable-background:new 0 0 116 99;" xml:space="preserve">
<style type="text/css">
	.st0{fill:#D6000F;}
	.st1{fill:#9D9D9E;}
	.st2{fill:none;stroke:#D6000F;stroke-width:2;stroke-linecap:round;stroke-miterlimit:10;}
	.st3{fill:none;stroke:#D6000F;stroke-width:0.75;stroke-linecap:round;stroke-miterlimit:10;}
	.st4{fill:none;stroke:#F6B42C;stroke-width:2;stroke-linecap:round;stroke-miterlimit:10;}
	.st5{fill:#FFFFFF;}
	.st6{fill:none;stroke:#FFFFFF;stroke-width:2;stroke-linecap:round;stroke-miterlimit:10;}
	.st7{fill:none;stroke:#FFFFFF;stroke-width:0.75;stroke-linecap:round;stroke-miterlimit:10;}
</style>
<g>
	<path id="hand_1_" class="st0" d="M98.2,65.6c-0.8-1.3-2.7-2.2-4.6-2.2c-1.1,0-2.6,0.3-4,1.5c-0.9,0.8-1.5,1.4-2.4,2.2
		c-1.8,1.7-4.8,4.4-14.4,13.2l-11.6,0c-3.4-0.1-5.8-0.7-7.2-1.8c-1.3-1.1-1.2-2.5-1.2-3.1H63c2.5,0,4.5,0,4.8,0
		c5.6,0,7.9-4.7,8.3-6.6c0-0.1,0-0.2-0.1-0.2c-0.1-0.1-0.2-0.1-0.3-0.1H35.2c-0.1,0-0.2,0.1-0.3,0.1L17.5,82.1
		c-0.1,0.1-0.1,0.3,0,0.4l17.7,13.7c0.1,0.1,0.2,0.1,0.3,0.1c0.1,0,0.2,0,0.3-0.1l9.6-7.5h0.9c0,0,0.1,0,0.1,0l30.4,0
		c0.1,0,0.2,0,0.3-0.1c0.2-0.2,17.5-16.6,20.6-19.7C98.7,67.9,98.9,66.7,98.2,65.6z"/>
	<g id="present_1_">
		<path id="bow_1_" class="st0" d="M75.3,4.3c-1.5-1.1-3.3-1.7-5.1-1.7c-3.3,0-6.5,1.8-9,4.9c-0.6,0.8-1.2,1.6-1.7,2.5
			c-0.5-0.9-1-1.7-1.7-2.5c-2.5-3.1-5.7-4.9-9-4.9c-1.8,0-3.6,0.6-5.1,1.7c-2.9,2.1-4.1,5.7-3,9.1c1.3,3.9,5.8,8.2,14.8,8.2
			c1.3,0,6.7,0,8,0h0c9,0,13.5-4.2,14.8-8.2C79.5,10,78.3,6.4,75.3,4.3z M55.5,17.2c-6.6,0-9.9-2.8-10.6-5.1c-0.5-1.6,0-3.2,1.4-4.2
			C47.1,7.3,48,7,48.9,7c3.6,0,7.6,4.2,8.3,10.1C56.6,17.2,56.1,17.2,55.5,17.2z M74.2,12.1c-0.8,2.4-4,5.1-10.6,5.1h0
			c-0.5,0-1.1,0-1.7-0.1C62.6,11.2,66.6,7,70.2,7c0.9,0,1.8,0.3,2.6,0.9C74.2,8.9,74.7,10.5,74.2,12.1z"/>
		<path id="box_1_" class="st0" d="M86.2,19.9H32.8c-1.2,0-2.2,1-2.2,2.2v9.6c0,1.2,1,2.2,2.2,2.2h0.2v29.3c0,1.2,1,2.2,2.2,2.2
			h48.5c1.2,0,2.2-1,2.2-2.2V33.9h0.2c1.2,0,2.2-1,2.2-2.2v-9.6C88.4,20.8,87.4,19.9,86.2,19.9z M84,29.5h-0.2H61.7v-5.2H84V29.5z
			 M35,24.3h22.3v5.2H35.3H35V24.3z M37.5,33.9h19.9V61H37.5V33.9z M61.7,61V33.9h19.9V61H61.7z"/>
	</g>
</g>
</svg>
