<?xml version="1.0" encoding="utf-8"?>
<!-- Generator: Adobe Illustrator 22.1.0, SVG Export Plug-In . SVG Version: 6.00 Build 0)  -->
<svg version="1.1" id="圖層_1" xmlns="http://www.w3.org/2000/svg" xmlns:xlink="http://www.w3.org/1999/xlink" x="0px" y="0px"
	 viewBox="0 0 116 99" style="enable-background:new 0 0 116 99;" xml:space="preserve">
<style type="text/css">
	.st0{fill:none;stroke:#D6000F;stroke-width:2;stroke-linecap:round;stroke-miterlimit:10;}
	.st1{fill:none;stroke:#D6000F;stroke-width:0.75;stroke-linecap:round;stroke-miterlimit:10;}
	.st2{fill:none;stroke:#F6B42C;stroke-width:2;stroke-linecap:round;stroke-miterlimit:10;}
	.st3{fill:none;stroke:#FFFFFF;stroke-width:2;stroke-linecap:round;stroke-miterlimit:10;}
	.st4{fill:none;stroke:#FFFFFF;stroke-width:0.75;stroke-linecap:round;stroke-miterlimit:10;}
	.st5{fill:#D6000F;}
	.st6{fill:#FFFFFF;}
</style>
<g>
	<g>
		
			<text transform="matrix(1 0 0 1 654.4778 18.9814)" class="st5" style="font-family:'MicrosoftJhengHeiBold'; font-size:21.6717px; letter-spacing:2;">是什麼?</text>
	</g>
	<g>
		<g>
			<g>
				<g>
					<text transform="matrix(1 0 0 1 534.748 23.52)"><tspan x="0" y="0" style="fill:#9D9D9E; font-family:'Avenir-MediumOblique'; font-size:32.9138px; letter-spacing:-1;">Fa</tspan><tspan x="32.7" y="0" style="fill:#9D9D9E; font-family:'Avenir-MediumOblique'; font-size:32.9138px;">stag</tspan></text>
					<text transform="matrix(1 0 0 1 534.748 23.52)"><tspan x="0" y="0" class="st5" style="font-family:'Avenir-MediumOblique'; font-size:32.9138px; letter-spacing:-1;">Fa</tspan><tspan x="32.7" y="0" class="st5" style="font-family:'Avenir-MediumOblique'; font-size:32.9138px;">stag</tspan></text>
				</g>
				<g>
					
						<text transform="matrix(0.95 0 -0.1187 0.9929 415.601 21.8791)" style="fill:#9D9D9E; font-family:'NewGothic-Bold'; font-size:29.3994px;">智慧標籤</text>
					
						<text transform="matrix(0.95 0 -0.1187 0.9929 415.601 21.8791)" class="st5" style="font-family:'NewGothic-Bold'; font-size:29.3994px;">智慧標籤</text>
				</g>
			</g>
		</g>
	</g>
	<path class="st0" d="M409.5,37.3c-14.7,0-26.8-12-26.8-26.8v0c0-14.7,12-26.8,26.8-26.8h279.7"/>
	<path class="st1" d="M409.8,33.4c-12.5,0-22.7-10.2-22.7-22.7v0c0-12.5,10.2-22.7,22.7-22.7h237"/>
	<line class="st2" x1="641.7" y1="37.3" x2="414.3" y2="37.3"/>
	<path class="st0" d="M740.5-16.3c14.7,0,26.8,12,26.8,26.8v0c0,14.7-12,26.8-26.8,26.8h-93.8"/>
	<path class="st1" d="M739.9-12.4c12.6,0,22.9,10.3,22.9,22.9v0c0,12.6-10.3,22.9-22.9,22.9h-78.7"/>
	<line class="st2" x1="695" y1="-16.3" x2="735.5" y2="-16.3"/>
</g>
<g>
	<g>
		<g>
			<g>
				
					<text transform="matrix(0.9559 0 -0.1195 0.9928 504.101 99.2301)" style="fill:#9D9D9E; font-family:'NewGothic-Bold'; font-size:31.4868px; letter-spacing:1;">感應   </text>
				<g>
					
						<text transform="matrix(0.9559 0 -0.1195 0.9928 504.101 99.2301)" class="st5" style="font-family:'NewGothic-Bold'; font-size:31.4868px; letter-spacing:1;">感應   </text>
				</g>
			</g>
		</g>
		<g>
			
				<text transform="matrix(1.0062 0 -0.1195 0.9928 566.931 102.6556)" style="fill:#9D9D9E; font-family:'Avenir-MediumOblique'; font-size:47.8063px; letter-spacing:-2;">3</text>
			<g>
				
					<text transform="matrix(1.0062 0 -0.1195 0.9928 566.931 102.6556)" class="st5" style="font-family:'Avenir-MediumOblique'; font-size:47.8063px; letter-spacing:-2;">3</text>
			</g>
		</g>
		<g>
			
				<text transform="matrix(0.9559 0 -0.1195 0.9928 597.3813 99.2301)" style="fill:#9D9D9E; font-family:'NewGothic-Bold'; font-size:31.4868px; letter-spacing:1;">步驟</text>
			<g>
				
					<text transform="matrix(0.9559 0 -0.1195 0.9928 597.3813 99.2301)" class="st5" style="font-family:'NewGothic-Bold'; font-size:31.4868px; letter-spacing:1;">步驟</text>
			</g>
		</g>
	</g>
	<path class="st0" d="M484.4,111.5c-14.7,0-26.8-12-26.8-26.8v0c0-14.7,12-26.8,26.8-26.8h149.8"/>
	<path class="st1" d="M484.7,107.6c-12.5,0-22.7-10.2-22.7-22.7v0c0-12.5,10.2-22.7,22.7-22.7h107.1"/>
	<line class="st2" x1="586.7" y1="111.5" x2="489.3" y2="111.5"/>
	<path class="st0" d="M685.6,58c14.7,0,26.8,12,26.8,26.8v0c0,14.7-12,26.8-26.8,26.8h-93.8"/>
	<path class="st1" d="M684.9,61.8c12.6,0,22.9,10.3,22.9,22.9v0c0,12.6-10.3,22.9-22.9,22.9h-78.7"/>
	<line class="st2" x1="640" y1="58" x2="680.5" y2="58"/>
</g>
<g>
	<g>
		
			<text transform="matrix(1 0 0 1 652.5409 -79.0186)" class="st6" style="font-family:'MicrosoftJhengHeiBold'; font-size:21.6717px; letter-spacing:2;">如何獲得?</text>
	</g>
	<g>
		<g>
			<g>
				<g>
					<text transform="matrix(1 0 0 1 544.7479 -74.48)"><tspan x="0" y="0" style="fill:#9D9D9E; font-family:'Avenir-MediumOblique'; font-size:32.9138px; letter-spacing:-1;">Fa</tspan><tspan x="32.7" y="0" style="fill:#9D9D9E; font-family:'Avenir-MediumOblique'; font-size:32.9138px;">stag</tspan></text>
					<text transform="matrix(1 0 0 1 544.7479 -74.48)"><tspan x="0" y="0" class="st6" style="font-family:'Avenir-MediumOblique'; font-size:32.9138px; letter-spacing:-1;">Fa</tspan><tspan x="32.7" y="0" class="st6" style="font-family:'Avenir-MediumOblique'; font-size:32.9138px;">stag</tspan></text>
				</g>
				<g>
					
						<text transform="matrix(0.95 0 -0.1187 0.9929 425.601 -76.1209)" style="fill:#9D9D9E; font-family:'NewGothic-Bold'; font-size:29.3994px;">智慧標籤</text>
					
						<text transform="matrix(0.95 0 -0.1187 0.9929 425.601 -76.1209)" class="st6" style="font-family:'NewGothic-Bold'; font-size:29.3994px;">智慧標籤</text>
				</g>
			</g>
		</g>
	</g>
	<path class="st3" d="M419.5-60.7c-14.7,0-26.8-12-26.8-26.8v0c0-14.7,12-26.8,26.8-26.8h279.7"/>
	<path class="st4" d="M419.8-64.6c-12.5,0-22.7-10.2-22.7-22.7v0c0-12.5,10.2-22.7,22.7-22.7h237"/>
	<line class="st2" x1="651.7" y1="-60.7" x2="424.3" y2="-60.7"/>
	<path class="st3" d="M750.5-114.3c14.7,0,26.8,12,26.8,26.8v0c0,14.7-12,26.8-26.8,26.8h-93.8"/>
	<path class="st4" d="M749.9-110.4c12.6,0,22.9,10.3,22.9,22.9v0c0,12.6-10.3,22.9-22.9,22.9h-78.7"/>
	<line class="st2" x1="705" y1="-114.3" x2="745.5" y2="-114.3"/>
</g>
<g>
	<g>
		<g>
			<g>
				
					<text transform="matrix(0.9559 0 -0.1195 0.9928 519.8172 202.1173)" style="fill:#9D9D9E; font-family:'NewGothic-Bold'; font-size:31.4868px; letter-spacing:1;">四大特點</text>
				<g>
					
						<text transform="matrix(0.9559 0 -0.1195 0.9928 519.8172 202.1173)" class="st6" style="font-family:'NewGothic-Bold'; font-size:31.4868px; letter-spacing:1;">四大特點</text>
				</g>
			</g>
		</g>
	</g>
	<path class="st3" d="M484.4,215.3c-14.7,0-26.8-12-26.8-26.8v0c0-14.7,12-26.8,26.8-26.8h149.8"/>
	<path class="st4" d="M484.7,211.4c-12.5,0-22.7-10.2-22.7-22.7v0c0-12.5,10.2-22.7,22.7-22.7h107.1"/>
	<line class="st2" x1="586.7" y1="215.3" x2="489.3" y2="215.3"/>
	<path class="st3" d="M685.6,161.7c14.7,0,26.8,12,26.8,26.8v0c0,14.7-12,26.8-26.8,26.8h-93.8"/>
	<path class="st4" d="M684.9,165.6c12.6,0,22.9,10.3,22.9,22.9v0c0,12.6-10.3,22.9-22.9,22.9h-78.7"/>
	<line class="st2" x1="640" y1="161.7" x2="680.5" y2="161.7"/>
</g>
<g>
	<path id="hand_1_" class="st5" d="M98.2-63.4c-0.8-1.3-2.7-2.2-4.6-2.2c-1.1,0-2.6,0.3-4,1.5c-0.9,0.8-1.5,1.4-2.4,2.2
		c-1.8,1.7-4.8,4.4-14.4,13.2l-11.6,0c-3.4-0.1-5.8-0.7-7.2-1.8c-1.3-1.1-1.2-2.5-1.2-3.1H63c2.5,0,4.5,0,4.8,0
		c5.6,0,7.9-4.7,8.3-6.6c0-0.1,0-0.2-0.1-0.2c-0.1-0.1-0.2-0.1-0.3-0.1H35.2c-0.1,0-0.2,0.1-0.3,0.1L17.5-46.9
		c-0.1,0.1-0.1,0.3,0,0.4l17.7,13.7c0.1,0.1,0.2,0.1,0.3,0.1c0.1,0,0.2,0,0.3-0.1l9.6-7.5h0.9c0,0,0.1,0,0.1,0l30.4,0
		c0.1,0,0.2,0,0.3-0.1c0.2-0.2,17.5-16.6,20.6-19.7C98.7-61.1,98.9-62.3,98.2-63.4z"/>
	<g id="present_1_">
		<path id="bow_1_" class="st5" d="M75.3-124.7c-1.5-1.1-3.3-1.7-5.1-1.7c-3.3,0-6.5,1.8-9,4.9c-0.6,0.8-1.2,1.6-1.7,2.5
			c-0.5-0.9-1-1.7-1.7-2.5c-2.5-3.1-5.7-4.9-9-4.9c-1.8,0-3.6,0.6-5.1,1.7c-2.9,2.1-4.1,5.7-3,9.1c1.3,3.9,5.8,8.2,14.8,8.2
			c1.3,0,6.7,0,8,0h0c9,0,13.5-4.2,14.8-8.2C79.5-119,78.3-122.6,75.3-124.7z M55.5-111.8c-6.6,0-9.9-2.8-10.6-5.1
			c-0.5-1.6,0-3.2,1.4-4.2c0.8-0.6,1.7-0.9,2.6-0.9c3.6,0,7.6,4.2,8.3,10.1C56.6-111.8,56.1-111.8,55.5-111.8z M74.2-116.9
			c-0.8,2.4-4,5.1-10.6,5.1h0c-0.5,0-1.1,0-1.7-0.1c0.8-5.9,4.7-10.1,8.3-10.1c0.9,0,1.8,0.3,2.6,0.9
			C74.2-120.1,74.7-118.5,74.2-116.9z"/>
		<path id="box_1_" class="st5" d="M86.2-109.1H32.8c-1.2,0-2.2,1-2.2,2.2v9.6c0,1.2,1,2.2,2.2,2.2h0.2v29.3c0,1.2,1,2.2,2.2,2.2
			h48.5c1.2,0,2.2-1,2.2-2.2v-29.3h0.2c1.2,0,2.2-1,2.2-2.2v-9.6C88.4-108.2,87.4-109.1,86.2-109.1z M84-99.5h-0.2H61.7v-5.2H84
			V-99.5z M35-104.7h22.3v5.2H35.3H35V-104.7z M37.5-95.1h19.9V-68H37.5V-95.1z M61.7-68v-27.1h19.9V-68H61.7z"/>
	</g>
</g>
<g>
	<path class="st5" d="M62.8-73.6c-0.9-0.4-2.6-0.9-5-1.5c-3-0.7-3.8-1.2-4.1-1.4c-0.4-0.4-0.6-0.8-0.6-1.4c0-0.7,0.3-1.3,0.9-1.8
		c0.7-0.5,1.8-0.8,3.4-0.8c1.5,0,2.7,0.3,3.4,0.9c0.7,0.6,1.1,1.5,1.3,2.7l0.1,0.7l4.2-0.3l0-0.7c-0.1-1.4-0.5-2.7-1.2-3.9
		c-0.8-1.1-1.8-2-3.2-2.6c-0.4-0.2-0.8-0.3-1.3-0.4v-3H55v2.8c-0.7,0.1-1.4,0.3-2,0.6c-1.4,0.6-2.4,1.4-3.1,2.5
		c-0.7,1.1-1.1,2.3-1.1,3.5c0,1.2,0.3,2.2,0.9,3.1c0.6,0.9,1.5,1.7,2.6,2.3c0.9,0.5,2.3,0.9,4.4,1.4c2.5,0.6,3.5,0.9,3.9,1.1
		c0.8,0.3,1.4,0.7,1.7,1.1c0.3,0.4,0.5,0.9,0.5,1.4c0,0.5-0.2,1-0.5,1.5c-0.3,0.5-0.9,0.8-1.6,1.1c-0.8,0.3-1.7,0.5-2.7,0.5
		c-1.2,0-2.2-0.2-3.1-0.6c-0.9-0.4-1.5-0.9-1.9-1.5c-0.4-0.6-0.7-1.4-0.8-2.4L52-69.4l-4.1,0.4l0,0.7c0,1.6,0.5,3.1,1.3,4.4
		c0.8,1.3,2,2.3,3.5,2.9c0.7,0.3,1.4,0.5,2.2,0.7v3h5.6v-3c0.7-0.2,1.4-0.4,2-0.7c1.4-0.6,2.5-1.5,3.2-2.7c0.7-1.2,1.1-2.4,1.1-3.7
		c0-1.3-0.4-2.5-1-3.6C65.2-72.1,64.2-73,62.8-73.6z"/>
	<g>
		<path class="st5" d="M85-85.4l3.4-1c-2-6.7-6.3-12.7-12.1-16.8l-2.1,2.9C79.4-96.6,83.2-91.4,85-85.4z"/>
		<path class="st5" d="M27.9-86.3l3.5,1c1.7-5.8,5.4-11.1,10.4-14.7l-2.1-2.9C34-98.8,29.9-92.9,27.9-86.3z"/>
		<path class="st5" d="M44.9-50.8l-1.7,3.2c4.6,2.5,9.7,3.8,15,3.8c5.1,0,10.1-1.2,14.6-3.6l-1.7-3.2C63.1-46.4,52.9-46.5,44.9-50.8
			z"/>
		<path class="st5" d="M26.8-66.2c4.5,0,8.2-3.7,8.2-8.2c0-4.5-3.7-8.2-8.2-8.2s-8.2,3.7-8.2,8.2C18.6-69.9,22.3-66.2,26.8-66.2z"/>
		<path class="st5" d="M31.9-64.5H21.7c-4.8,0-8.6,3.9-8.6,8.6v9.8h27.4v-9.8C40.5-60.6,36.6-64.5,31.9-64.5z"/>
		<path class="st5" d="M81-74.4c0,4.5,3.7,8.2,8.2,8.2c4.5,0,8.2-3.7,8.2-8.2c0-4.5-3.7-8.2-8.2-8.2C84.7-82.6,81-78.9,81-74.4z"/>
		<path class="st5" d="M94.3-64.5H84.1c-4.8,0-8.6,3.9-8.6,8.6v9.8h27.4v-9.8C102.9-60.6,99-64.5,94.3-64.5z"/>
		<path class="st5" d="M58-112.8c4.5,0,8.2-3.7,8.2-8.2c0-4.5-3.7-8.2-8.2-8.2c-4.5,0-8.2,3.7-8.2,8.2
			C49.8-116.5,53.5-112.8,58-112.8z"/>
		<path class="st5" d="M71.7-102.4c0-4.8-3.9-8.6-8.6-8.6H52.9c-4.8,0-8.6,3.9-8.6,8.6v9.8h27.4V-102.4z"/>
	</g>
</g>
<g>
	<path class="st5" d="M61,11.4c-0.3-1.5-1.6-2.6-3.2-2.6H44.3h-5H14.5c-0.3,0-0.5,0.1-0.8,0.1l0,0c-0.1,0-0.1,0-0.1,0.1
		c-0.2,0.1-0.3,0.1-0.5,0.2c-0.2,0.1-0.3,0.2-0.4,0.3c-0.1,0.1-0.3,0.2-0.4,0.3c-0.1,0.1-0.3,0.3-0.4,0.4c-0.1,0.1-0.2,0.2-0.2,0.3
		c-0.2,0.3-0.3,0.6-0.3,0.9c0,0,0,0.1,0,0.1c0,0.2-0.1,0.4-0.1,0.7v25.7v11.5v24.6V87c0,0.2,0,0.5,0.1,0.7c0.3,1.5,1.6,2.6,3.2,2.6
		h43.3c1.6,0,2.9-1.1,3.2-2.6c0-0.2,0.1-0.4,0.1-0.7V73.9v-5.4c-0.8-0.4-1.6-0.7-2.3-1.1c-1.3-0.7-2.7-1.5-4.1-2.4v4.9v3.9H17.6
		v-3.9V47.5V34V19h2.6h15.3h12.8h6.5v15v16.8c2.2,0.1,4.3,0.9,6.4,1.8V37.8V12C61.1,11.8,61.1,11.6,61,11.4z M30.2,80.5h12v4.2h-12
		V80.5z"/>
	<path class="st5" d="M76.8,69.6l4.2,2.8l-1.6,2.4l13.1,8.9l12.2-17.9l-13.1-8.9L90.3,59l-3.1-2.5c0,0-3.2-8.3-6.8-11.8
		c-3.7-3.5-15-6-15-6s0.2,8.5,0.2,15.8c-0.7,7.9-13.4-5.1-16.2-0.1c-1.6,3.2,5.2,7.2,10,9.9C64,67,76.8,69.6,76.8,69.6z M86.2,73.6
		l6.8-9.9l5.2,3.5l-6.8,9.9L86.2,73.6z"/>
	<g>
		<path class="st5" d="M44.1,49.3h-16c-1.9,0-3.4-1.5-3.4-3.4v-16c0-1.9,1.5-3.4,3.4-3.4h16c1.9,0,3.4,1.5,3.4,3.4v16
			C47.4,47.7,45.9,49.3,44.1,49.3z M28.1,29.2c-0.4,0-0.7,0.3-0.7,0.7v16c0,0.4,0.3,0.7,0.7,0.7h16c0.4,0,0.7-0.3,0.7-0.7v-16
			c0-0.4-0.3-0.7-0.7-0.7H28.1z"/>
	</g>
</g>
<g>
	<g>
		<path class="st5" d="M295.5,9.4h-52.3c-3.8,0-6.2,2.4-6.2,6.4v69.4c0,2.1,0.6,3.7,1.7,4.8c0.9,0.9,2.3,1.4,3.9,1.6v2h8.9v-1.9
			h34.7v1.9h8.9v-1.9h1c2.5,0,5.5-1.1,5.5-6.4V15.8C301.7,11.9,299.3,9.4,295.5,9.4z M258.2,30.4v-17h37.7c1.3,0,2.3,1.1,2.3,2.4
			v14.6H258.2z M240.5,30.4V15.8c0-1.3,1-2.4,2.3-2.4h11.9v17H240.5z M298.1,34.3v51.7c0,1.3-1,2.4-2.3,2.4h-53
			c-1.3,0-2.3-1.1-2.3-2.4V34.3H298.1z"/>
		<path class="st5" d="M269.1,78c10.4,0,18.8-8.5,18.8-18.8s-8.5-18.8-18.8-18.8s-18.8,8.5-18.8,18.8S258.7,78,269.1,78z
			 M269.1,41.7c9.6,0,17.4,7.8,17.4,17.4c0,9.6-7.8,17.4-17.4,17.4s-17.4-7.8-17.4-17.4C251.7,49.5,259.5,41.7,269.1,41.7z"/>
		<path class="st5" d="M269.1,74c8.2,0,14.9-6.7,14.9-14.9s-6.7-14.9-14.9-14.9s-14.9,6.7-14.9,14.9S260.9,74,269.1,74z M260.1,51.2
			c0.2-0.7,0.7-1.3,1.3-1.8c2.8-2.6,7-3.7,10.7-2.8c0.6,0.1,1.2,0.3,1.6,0.8c0.8,0.9,0.4,2.4-0.5,3.2c-1.7,1.6-4.4,1.4-6.7,2
			c-1.6,0.4-3.1,1.3-4.7,1.1c-0.4,0-0.9-0.2-1.2-0.4C260,52.8,259.9,51.9,260.1,51.2z"/>
		<circle class="st5" cx="290.1" cy="21.1" r="4.6"/>
		<circle class="st5" cx="281.9" cy="21.1" r="2.7"/>
		<circle class="st5" cx="275.5" cy="21.1" r="2.7"/>
	</g>
	<circle class="st6" cx="234.6" cy="34.2" r="18.7"/>
	<g>
		<path class="st5" d="M234.4,18.9c-4.4,0-8.3,1.8-11.1,4.8l-16.4,2.4l-17.6,18.7l-0.2,24.6h3.1l0.2-23.1l15.7-16.6l12.4-1.8
			c-0.9,2-1.4,4.2-1.4,6.5c0,0.7,0.1,1.3,0.1,2l-10.1,1.5l3.8,2.9l-1.5,1.5l-3.7,3.7l-6.1,6.1l2.6,2.6l6.6-6.6l6.2-6.2c0,0,0,0,0,0
			c0.2-0.2,0.4-0.4,0.7-0.6c0.2-0.1,0.4-0.2,0.6-0.3c0,0,0.1,0,0.1-0.1c0.5-0.2,1.1-0.4,1.7-0.4c0,0,0,0,0,0l0,0c0.1,0,0.1,0,0.2,0
			c1.1,0,2,0.4,2.8,1.1c0.7,0.7,1.1,1.8,1.1,2.9c0,0.5-0.1,0.9-0.3,1.4l0,0l0,0c-0.1,0.3-0.3,0.6-0.4,0.9c0,0,0,0,0,0.1
			c-0.2,0.3-0.4,0.6-0.6,0.8l-17.9,17.9v0l-4.1,4.1h5.2l5-5l2.8-2.8L225.5,50c0.6-0.6,1.2-1.4,1.6-2.2c2.2,1.2,4.7,1.9,7.4,1.9
			c8.5,0,15.4-6.9,15.4-15.4S242.9,18.9,234.4,18.9z M234.4,46.4c-6.7,0-12.1-5.4-12.1-12.1s5.4-12.1,12.1-12.1
			c6.7,0,12.1,5.4,12.1,12.1S241.1,46.4,234.4,46.4z"/>
		<g>
			<g>
				<path class="st5" d="M227.9,41.4c0,0-0.1,0-0.1,0c-0.5-0.1-0.8-0.5-0.7-1l1.2-7.5c0.1-0.5,0.5-0.8,1-0.7c0.5,0.1,0.8,0.5,0.7,1
					l-1.2,7.5C228.7,41.1,228.4,41.4,227.9,41.4z"/>
			</g>
			<g>
				<path class="st5" d="M230.7,39.4c-0.5,0-0.9-0.4-0.9-0.9c0-0.5,0.4-0.9,0.9-0.9c1.9,0,3.4-1.5,3.4-3.4s-1.5-3.4-3.4-3.4
					c-0.8,0-1.5,0.2-2.1,0.7c-0.4,0.3-0.9,0.2-1.2-0.2c-0.3-0.4-0.2-0.9,0.2-1.2c0.9-0.7,2-1,3.1-1c2.9,0,5.2,2.3,5.2,5.2
					S233.5,39.4,230.7,39.4z"/>
			</g>
			<g>
				<path class="st5" d="M237,43.2c-0.3,0-0.6-0.1-0.7-0.4c-0.3-0.4-0.2-0.9,0.2-1.2c2.4-1.7,3.9-4.4,3.9-7.4c0-2.9-1.5-5.7-3.9-7.4
					c-0.4-0.3-0.5-0.8-0.2-1.2c0.3-0.4,0.8-0.5,1.2-0.2c2.9,2,4.6,5.3,4.6,8.8c0,3.5-1.7,6.8-4.7,8.8
					C237.4,43.2,237.2,43.2,237,43.2z"/>
			</g>
			<g>
				<path class="st5" d="M234.6,41.2c-0.3,0-0.6-0.2-0.8-0.4c-0.2-0.4-0.1-1,0.3-1.2c1.9-1.1,3.1-3.2,3.1-5.4c0-2.2-1.2-4.2-3.1-5.3
					c-0.4-0.2-0.6-0.8-0.3-1.2c0.2-0.4,0.8-0.6,1.2-0.3c2.4,1.4,3.9,4.1,3.9,6.9c0,2.8-1.5,5.4-4,6.9
					C234.9,41.2,234.8,41.2,234.6,41.2z"/>
			</g>
		</g>
	</g>
</g>
</svg>
