<?xml version="1.0" encoding="utf-8"?>
<!-- Generator: Adobe Illustrator 22.1.0, SVG Export Plug-In . SVG Version: 6.00 Build 0)  -->
<svg version="1.1" xmlns="http://www.w3.org/2000/svg" xmlns:xlink="http://www.w3.org/1999/xlink" x="0px" y="0px"
	 viewBox="0 0 462.9 109" style="enable-background:new 0 0 462.9 109;" xml:space="preserve">
<style type="text/css">
	.st0{display:none;}
	.st1{display:inline;}
	.st2{enable-background:new    ;}
	.st3{fill:#FFFFFF;}
	.st4{font-family:'AdobeMingStd-Light-B5pc-H';}
	.st5{font-size:21.6717px;}
	.st6{letter-spacing:1;}
	.st7{font-family:'MicrosoftSansSerif';}
	.st8{fill:#9D9D9E;}
	.st9{font-family:'Avenir-MediumOblique';}
	.st10{font-size:32.9138px;}
	.st11{font-family:'NewGothic-Bold';}
	.st12{font-size:29.3994px;}
	.st13{fill:none;stroke:#FFFFFF;stroke-width:2;stroke-linecap:round;stroke-miterlimit:10;}
	.st14{fill:none;stroke:#FFFFFF;stroke-width:0.75;stroke-linecap:round;stroke-miterlimit:10;}
	.st15{fill:none;stroke:#F6B42C;stroke-width:2;stroke-linecap:round;stroke-miterlimit:10;}
	.st16{fill:#D6000F;}
	.st17{font-family:'Arial-ItalicMT';}
	.st18{font-size:109.8763px;}
	.st19{letter-spacing:-2;}
	.st20{font-size:31.4868px;}
	.st21{fill:none;stroke:#D6000F;stroke-width:2;stroke-linecap:round;stroke-miterlimit:10;}
	.st22{fill:none;stroke:#D6000F;stroke-width:0.75;stroke-linecap:round;stroke-miterlimit:10;}
	.st23{font-family:'ArialMT';}
</style>
<g id="圖層_1" class="st0">
	<g class="st1">
		<g>
			<text transform="matrix(1 0 0 1 299.2076 62.9814)" class="st2"><tspan x="0" y="0" class="st3 st4 st5 st6">如何獲得</tspan><tspan x="94.7" y="0" class="st3 st7 st5 st6">?</tspan></text>
		</g>
		<g>
			<g>
				<g>
					<g>
						<text transform="matrix(1 0 0 1 191.4147 67.52)" class="st8 st9 st10">Fa</text>
						<text transform="matrix(1 0 0 1 224.1147 67.52)" class="st8 st9 st10">stag</text>
						<text transform="matrix(1 0 0 1 191.4147 67.52)" class="st3 st9 st10">Fa</text>
						<text transform="matrix(1 0 0 1 224.1147 67.52)" class="st3 st9 st10">stag</text>
					</g>
					<g>
						<text transform="matrix(0.95 0 -0.1187 0.9929 72.268 65.8789)" class="st8 st11 st12">智慧標籤</text>
						<text transform="matrix(0.95 0 -0.1187 0.9929 72.268 65.8789)" class="st3 st11 st12">智慧標籤</text>
					</g>
				</g>
			</g>
		</g>
		<path class="st13" d="M66.2,81.3c-14.7,0-26.8-12-26.8-26.8l0,0c0-14.7,12-26.8,26.8-26.8h279.7"/>
		<path class="st14" d="M66.5,77.4c-12.5,0-22.7-10.2-22.7-22.7l0,0C43.8,42.2,54,32,66.5,32h237"/>
		<line class="st15" x1="298.4" y1="81.3" x2="71" y2="81.3"/>
		<path class="st13" d="M397.2,27.7c14.7,0,26.8,12,26.8,26.8l0,0c0,14.7-12,26.8-26.8,26.8h-93.8"/>
		<path class="st14" d="M396.6,31.6c12.6,0,22.9,10.3,22.9,22.9l0,0c0,12.6-10.3,22.9-22.9,22.9h-78.7"/>
		<line class="st15" x1="351.7" y1="27.7" x2="392.2" y2="27.7"/>
	</g>
</g>
<g id="圖層_2" class="st0">
	<g class="st1">
		<g>
			<text transform="matrix(0.9913 0 0 1 43.2497 89.0664)" class="st16 st17 st18 st19">1</text>
		</g>
		<g>
			<g>
				<g>
					<g>
						<text transform="matrix(0.9559 0 -0.1195 0.9928 170.233 69.0714)" class="st8 st11 st20 st6">限時首購優惠</text>
						<g>
							<text transform="matrix(0.9559 0 -0.1195 0.9928 170.233 69.0714)" class="st16 st11 st20 st6">限時首購優惠</text>
						</g>
					</g>
				</g>
			</g>
			<path class="st21" d="M141.3,82.2c-14.7,0-26.8-12-26.8-26.8v0c0-14.7,12-26.8,26.8-26.8h149.8"/>
			<path class="st22" d="M141.6,78.4c-12.5,0-22.7-10.2-22.7-22.7v0c0-12.5,10.2-22.7,22.7-22.7h107.1"/>
			<line class="st15" x1="291.1" y1="82.2" x2="146.2" y2="82.2"/>
			<path class="st21" d="M390,28.7c14.7,0,26.8,12,26.8,26.8v0c0,14.7-12,26.8-26.8,26.8h-93.8"/>
			<path class="st22" d="M389.3,32.5c12.6,0,22.9,10.3,22.9,22.9v0c0,12.6-10.3,22.9-22.9,22.9h-78.7"/>
			<line class="st15" x1="296.9" y1="28.7" x2="385" y2="28.7"/>
		</g>
	</g>
</g>
<g id="圖層_3" class="st0">
	<g class="st1">
		<g>
			<text transform="matrix(0.9913 0 0 1 43.7184 85.9468)" class="st16 st17 st18 st19">2</text>
		</g>
		<g>
			<g>
				<g>
					<g>
						<text transform="matrix(0.9559 0 -0.1195 0.9928 156.702 69.617)" class="st8 st11 st20 st6">銀行狂慶加碼送</text>
						<g>
							<text transform="matrix(0.9559 0 -0.1195 0.9928 156.702 69.617)" class="st16 st11 st20 st6">銀行狂慶加碼送</text>
						</g>
					</g>
				</g>
			</g>
			<path class="st21" d="M141.8,82.8c-14.7,0-26.8-12-26.8-26.8v0c0-14.7,12-26.8,26.8-26.8h149.8"/>
			<path class="st22" d="M142.1,78.9c-12.5,0-22.7-10.2-22.7-22.7v0c0-12.5,10.2-22.7,22.7-22.7h107.1"/>
			<line class="st15" x1="291.6" y1="82.8" x2="146.7" y2="82.8"/>
			<path class="st21" d="M390.4,29.2c14.7,0,26.8,12,26.8,26.8v0c0,14.7-12,26.8-26.8,26.8h-93.8"/>
			<path class="st22" d="M389.8,33.1c12.6,0,22.9,10.3,22.9,22.9v0c0,12.6-10.3,22.9-22.9,22.9h-78.7"/>
			<line class="st15" x1="297.4" y1="29.2" x2="385.4" y2="29.2"/>
		</g>
	</g>
</g>
<g id="圖層_4">
	<g>
		<g>
			<text transform="matrix(0.9913 0 0 1 -3.721 83.7384)" class="st16 st17 st18 st19">3</text>
		</g>
		<g>
			<g>
				<g>
					<g>
						<text transform="matrix(0.9559 0 -0.1195 0.9928 109.2622 69.1576)"><tspan x="0" y="0" class="st8 st11 st20 st6">再享尊榮</tspan><tspan x="132.2" y="0" class="st8 st23 st20 st6">Prime</tspan><tspan x="222.3" y="0" class="st8 st11 st20 st6">會員價</tspan></text>
						<g>
							<text transform="matrix(0.9559 0 -0.1195 0.9928 109.2622 69.1576)"><tspan x="0" y="0" class="st16 st11 st20 st6">再享尊榮</tspan><tspan x="132.2" y="0" class="st16 st23 st20 st6">Prime</tspan><tspan x="222.3" y="0" class="st16 st11 st20 st6">會員價</tspan></text>
						</g>
					</g>
				</g>
			</g>
			<path class="st21" d="M94.4,82.3c-14.7,0-26.8-12-26.8-26.8v0c0-14.7,12-26.8,26.8-26.8h149.8"/>
			<path class="st22" d="M94.7,78.5C82.2,78.5,72,68.3,72,55.8v0c0-12.5,10.2-22.7,22.7-22.7h107.1"/>
			<line class="st15" x1="329.7" y1="82.3" x2="99.2" y2="82.3"/>
			<path class="st21" d="M428.5,28.8c14.7,0,26.8,12,26.8,26.8v0c0,14.7-12,26.8-26.8,26.8h-93.8"/>
			<path class="st22" d="M427.9,32.6c12.6,0,22.9,10.3,22.9,22.9v0c0,12.6-10.3,22.9-22.9,22.9h-78.7"/>
			<line class="st15" x1="249.9" y1="28.8" x2="423.5" y2="28.8"/>
		</g>
	</g>
</g>
</svg>
