<?xml version="1.0" encoding="utf-8"?>
<!-- Generator: Adobe Illustrator 22.1.0, SVG Export Plug-In . SVG Version: 6.00 Build 0)  -->
<svg version="1.1" id="圖層_1" xmlns="http://www.w3.org/2000/svg" xmlns:xlink="http://www.w3.org/1999/xlink" x="0px" y="0px"
	 viewBox="0 0 434 109" style="enable-background:new 0 0 434 109;" xml:space="preserve">
<style type="text/css">
	.st0{fill:#D6000F;}
	.st1{font-family:'MicrosoftJhengHeiBold';}
	.st2{font-size:21.6717px;}
	.st3{letter-spacing:2;}
	.st4{fill:#9D9D9E;}
	.st5{font-family:'Avenir-MediumOblique';}
	.st6{font-size:32.9138px;}
	.st7{letter-spacing:-1;}
	.st8{font-family:'NewGothic-Bold';}
	.st9{font-size:29.3994px;}
	.st10{fill:none;stroke:#D6000F;stroke-width:2;stroke-linecap:round;stroke-miterlimit:10;}
	.st11{fill:none;stroke:#D6000F;stroke-width:0.75;stroke-linecap:round;stroke-miterlimit:10;}
	.st12{fill:none;stroke:#F6B42C;stroke-width:2;stroke-linecap:round;stroke-miterlimit:10;}
	.st13{fill:#FFFFFF;}
	.st14{fill:none;stroke:#FFFFFF;stroke-width:2;stroke-linecap:round;stroke-miterlimit:10;}
	.st15{fill:none;stroke:#FFFFFF;stroke-width:0.75;stroke-linecap:round;stroke-miterlimit:10;}
</style>
<g>
	<g>
		<text transform="matrix(1 0 0 1 296.4778 62.9814)" class="st0 st1 st2 st3">是什麼?</text>
	</g>
	<g>
		<g>
			<g>
				<g>
					<text transform="matrix(1 0 0 1 176.748 67.52)"><tspan x="0" y="0" class="st4 st5 st6 st7">Fa</tspan><tspan x="32.7" y="0" class="st4 st5 st6">stag</tspan></text>
					<text transform="matrix(1 0 0 1 176.748 67.52)"><tspan x="0" y="0" class="st0 st5 st6 st7">Fa</tspan><tspan x="32.7" y="0" class="st0 st5 st6">stag</tspan></text>
				</g>
				<g>
					<text transform="matrix(0.95 0 -0.1187 0.9929 57.601 65.8791)" class="st4 st8 st9">智慧標籤</text>
					<text transform="matrix(0.95 0 -0.1187 0.9929 57.601 65.8791)" class="st0 st8 st9">智慧標籤</text>
				</g>
			</g>
		</g>
	</g>
	<path class="st10" d="M51.5,81.3c-14.7,0-26.8-12-26.8-26.8v0c0-14.7,12-26.8,26.8-26.8h279.7"/>
	<path class="st11" d="M51.8,77.4c-12.5,0-22.7-10.2-22.7-22.7v0c0-12.5,10.2-22.7,22.7-22.7h237"/>
	<line class="st12" x1="283.7" y1="81.3" x2="56.3" y2="81.3"/>
	<path class="st10" d="M382.5,27.7c14.7,0,26.8,12,26.8,26.8v0c0,14.7-12,26.8-26.8,26.8h-93.8"/>
	<path class="st11" d="M381.9,31.6c12.6,0,22.9,10.3,22.9,22.9v0c0,12.6-10.3,22.9-22.9,22.9h-78.7"/>
	<line class="st12" x1="337" y1="27.7" x2="377.5" y2="27.7"/>
</g>
</svg>
