<svg id="圖層_2" data-name="圖層 2" xmlns="http://www.w3.org/2000/svg" viewBox="0 0 434 109"><defs><style>.cls-1{font-size:109.88px;font-family:Arial-ItalicMT, Arial;font-style:italic;letter-spacing:-0.03em;}.cls-1,.cls-3{fill:#d6000f;}.cls-2,.cls-3{font-size:31.49px;font-family:NewGothic-Bold, AR Heiti2B5;font-weight:700;letter-spacing:0.05em;}.cls-2{fill:#9d9d9e;}.cls-4,.cls-5,.cls-6{fill:none;stroke-linecap:round;stroke-miterlimit:10;}.cls-4,.cls-5{stroke:#d6000f;}.cls-4,.cls-6{stroke-width:2px;}.cls-5{stroke-width:0.75px;}.cls-6{stroke:#f6b42c;}</style></defs><title>logo_bank1</title><text class="cls-1" transform="translate(28.58 89.07) scale(0.99 1)">1</text><text class="cls-2" transform="matrix(0.96, 0, -0.12, 0.99, 155.57, 69.07)">限時首購優惠</text><text class="cls-3" transform="matrix(0.96, 0, -0.12, 0.99, 155.57, 69.07)">限時首購優惠</text><path class="cls-4" d="M126.68,82.21A26.83,26.83,0,0,1,99.93,55.45h0A26.83,26.83,0,0,1,126.68,28.7H276.45"/><path class="cls-5" d="M127,78.39A22.73,22.73,0,0,1,104.3,55.72h0A22.74,22.74,0,0,1,127,33h107.1"/><line class="cls-6" x1="276.46" y1="82.21" x2="131.53" y2="82.21"/><path class="cls-4" d="M375.31,28.7a26.83,26.83,0,0,1,26.75,26.75h0a26.83,26.83,0,0,1-26.75,26.76H281.46"/><path class="cls-5" d="M374.66,32.55a23,23,0,0,1,22.9,22.9h0a23,23,0,0,1-22.9,22.91H296"/><line class="cls-6" x1="282.24" y1="28.7" x2="370.29" y2="28.7"/></svg>