<?xml version="1.0" encoding="utf-8"?>
<!-- Generator: Adobe Illustrator 22.1.0, SVG Export Plug-In . SVG Version: 6.00 Build 0)  -->
<svg version="1.1" id="圖層_1" xmlns="http://www.w3.org/2000/svg" xmlns:xlink="http://www.w3.org/1999/xlink" x="0px" y="0px"
	 viewBox="0 0 434 109" style="enable-background:new 0 0 434 109;" xml:space="preserve">
<style type="text/css">
	.st0{fill:#D6000F;}
	.st1{fill:#9D9D9E;}
	.st2{fill:none;stroke:#D6000F;stroke-width:2;stroke-linecap:round;stroke-miterlimit:10;}
	.st3{fill:none;stroke:#D6000F;stroke-width:0.75;stroke-linecap:round;stroke-miterlimit:10;}
	.st4{fill:none;stroke:#F6B42C;stroke-width:2;stroke-linecap:round;stroke-miterlimit:10;}
	.st5{font-family:'NewGothic-Bold';}
	.st6{font-size:31.4868px;}
	.st7{letter-spacing:1;}
	.st8{font-family:'Avenir-MediumOblique';}
	.st9{font-size:47.8063px;}
	.st10{letter-spacing:-2;}
	.st11{fill:#FFFFFF;}
	.st12{fill:none;stroke:#FFFFFF;stroke-width:2;stroke-linecap:round;stroke-miterlimit:10;}
	.st13{fill:none;stroke:#FFFFFF;stroke-width:0.75;stroke-linecap:round;stroke-miterlimit:10;}
</style>
<g>
	<g>
		<g>
			<g>
				<text transform="matrix(0.9559 0 -0.1195 0.9928 136.101 69.2301)" class="st1 st5 st6 st7">感應   </text>
				<g>
					<text transform="matrix(0.9559 0 -0.1195 0.9928 136.101 69.2301)" class="st0 st5 st6 st7">感應   </text>
				</g>
			</g>
		</g>
		<g>
			<text transform="matrix(1.0062 0 -0.1195 0.9928 198.931 72.6556)" class="st1 st8 st9 st10">3</text>
			<g>
				<text transform="matrix(1.0062 0 -0.1195 0.9928 198.931 72.6556)" class="st0 st8 st9 st10">3</text>
			</g>
		</g>
		<g>
			<text transform="matrix(0.9559 0 -0.1195 0.9928 229.3813 69.2301)" class="st1 st5 st6 st7">步驟</text>
			<g>
				<text transform="matrix(0.9559 0 -0.1195 0.9928 229.3813 69.2301)" class="st0 st5 st6 st7">步驟</text>
			</g>
		</g>
	</g>
	<path class="st2" d="M116.4,81.5c-14.7,0-26.8-12-26.8-26.8v0c0-14.7,12-26.8,26.8-26.8h149.8"/>
	<path class="st3" d="M116.7,77.6c-12.5,0-22.7-10.2-22.7-22.7v0c0-12.5,10.2-22.7,22.7-22.7h107.1"/>
	<line class="st4" x1="218.7" y1="81.5" x2="121.3" y2="81.5"/>
	<path class="st2" d="M317.6,28c14.7,0,26.8,12,26.8,26.8v0c0,14.7-12,26.8-26.8,26.8h-93.8"/>
	<path class="st3" d="M316.9,31.8c12.6,0,22.9,10.3,22.9,22.9v0c0,12.6-10.3,22.9-22.9,22.9h-78.7"/>
	<line class="st4" x1="272" y1="28" x2="312.5" y2="28"/>
</g>
</svg>
