<svg id="圖層_1" data-name="圖層 1" xmlns="http://www.w3.org/2000/svg" viewBox="0 0 381.33 65"><defs><style>.cls-1,.cls-2{font-size:46.24px;font-family:NewGothic-Bold, AR Heiti2B5;font-weight:700;letter-spacing:0.03em;}.cls-1,.cls-5{fill:#9e9e9f;}.cls-2,.cls-6{fill:#d7000f;}.cls-3{fill:#0075c1;}.cls-4{fill:#00aeeb;}</style></defs><title>logo_ft_mobile</title><text class="cls-1" transform="matrix(0.95, 0, -0.12, 0.99, 193.84, 54.23)">智慧標籤</text><text class="cls-2" transform="matrix(0.95, 0, -0.12, 0.99, 193.84, 54.23)">智慧標籤</text><path class="cls-3" d="M9.67,39.6h.7c1.61,0,3,0,2.66,2.15s-1.79,2.06-3.29,2.06H9ZM3.54,53H7.68l.83-5.6h2.35c3.61,0,5.9-1.75,6.5-5.74s-1.54-5.55-5-5.55H6.06Z"/><path class="cls-4" d="M34.62,36.87l-1.06,7.07h0a3.82,3.82,0,0,1,3.09-1.52c2.26,0,3.13,1.59,2.77,4l-.87,5.81H35.41l.73-4.87c.17-1.11.18-2.26-1.09-2.26s-1.83,1.15-2,2.26l-.73,4.87H29.15l2.29-15.36Z"/><path class="cls-4" d="M46.09,45.34a1.7,1.7,0,0,1,1.72,2.15,2.37,2.37,0,0,1-2.36,2.13,1.67,1.67,0,0,1-1.72-2.13A2.41,2.41,0,0,1,46.09,45.34Zm.44-2.92a6,6,0,0,0-6.15,5.07c-.49,3.24,1.77,5,4.64,5a6,6,0,0,0,6.14-5C51.65,44.25,49.41,42.42,46.53,42.42Z"/><path class="cls-4" d="M56,43.92h0a3.86,3.86,0,0,1,3-1.5,2.72,2.72,0,0,1,2.78,1.81,4,4,0,0,1,3.31-1.81c2.27,0,2.82,1.57,2.49,3.76l-.9,6H63.54l.68-4.54c.15-1,.42-2.59-.92-2.59s-1.74,1.46-1.91,2.59l-.67,4.54H57.54l.68-4.54c.16-1,.4-2.66-1-2.66s-1.65,1.61-1.81,2.66l-.68,4.54H51.54L53,42.74h3.17Z"/><path class="cls-4" d="M71.93,46.1A2.16,2.16,0,0,1,74,44.61a1.51,1.51,0,0,1,1.57,1.49Zm6.39,1.59c.49-3.23-1-5.27-4.11-5.27a5.63,5.63,0,0,0-5.72,5.07c-.49,3.28,1.46,5,4.43,5a5.21,5.21,0,0,0,5-3.26h-3a1.86,1.86,0,0,1-1.65.87c-1.31,0-1.88-.74-1.67-2.1h6.68Z"/><path class="cls-4" d="M29.54,41.85l.75-5a8.26,8.26,0,0,0-2.6-.76l-.62,4.07A3.41,3.41,0,0,1,29.54,41.85Z"/><path class="cls-4" d="M28.74,47.2a5.46,5.46,0,0,1-3,1.65l-.62,4.07a15,15,0,0,0,2.86-.7Z"/><path class="cls-3" d="M25.13,52.92l.62-4.07a5.05,5.05,0,0,1-.67.06c-2.45,0-3.83-1.83-3.45-4.37a5,5,0,0,1,4.71-4.46,4.4,4.4,0,0,1,.73.07l.62-4.07a8.53,8.53,0,0,0-.89,0,9.34,9.34,0,0,0-6.16,2.6,10.25,10.25,0,0,0-3.11,5.89,7.14,7.14,0,0,0,1.52,6.08A7.05,7.05,0,0,0,24.4,53,5.85,5.85,0,0,0,25.13,52.92Z"/><path class="cls-5" d="M52.59,36.71a1,1,0,0,1,.89,1.17,1.5,1.5,0,0,1-1.24,1.24c-.6,0-1-.69-.88-1.24A1.38,1.38,0,0,1,52.59,36.71Zm-.45,3.11a2.19,2.19,0,0,0,2.07-1.91A1.55,1.55,0,0,0,52.7,36a2.19,2.19,0,0,0-2.07,1.9A1.53,1.53,0,0,0,52.14,39.82Z"/><path class="cls-5" d="M57.23,36h.51l1.53,2.53h0l.36-2.43h.71L59.8,39.8h-.51l-1.53-2.53h0l-.36,2.45h-.71Z"/><path class="cls-5" d="M63.52,39.11h1l-.09.61H62.72l.54-3.61H64Z"/><path class="cls-5" d="M67.76,39.72h-.71l.54-3.61h.7Z"/><path class="cls-5" d="M71.22,36h.51l1.53,2.53h0l.36-2.43h.7l-.54,3.69h-.51l-1.53-2.53h0l-.36,2.45h-.71Z"/><path class="cls-5" d="M77.86,36.72l-.12.8h1.13l-.09.61H77.65l-.14,1h1.16l-.09.61H76.71l.54-3.61h1.87l-.09.61Z"/><path class="cls-6" d="M148.22,45.13a21.08,21.08,0,0,1-1.47,4.51l-1.83-.59a21.28,21.28,0,0,0,1.44-4.42Zm3.25-1.2H145.8c-.18,0-.26-.09-.26-.27V29a.23.23,0,0,1,.26-.25h5.67c.19,0,.29.1.29.25V43.66C151.76,43.84,151.66,43.93,151.47,43.93Zm-1.62-10.7V30.62c0-.05,0-.07-.1-.07h-2.23c-.05,0-.08,0-.08.07v2.61Zm0,4.45V35h-2.41v2.65Zm-2.41,1.8V42c0,.06,0,.1.08.1h2.23a.09.09,0,0,0,.1-.1V39.48Zm3.3,5.29a16,16,0,0,1,1.42,3.66l-1.73.55A21,21,0,0,0,149,45.4Zm4.86,4.79h-1.91V46.39H152.4v-1.6h1.29V38.73c0-.27.15-.41.44-.41h5V37h-6.48v-1.6h3.6V34.09h-2.74V32.48h2.74V31.27h-3.41V29.66h3.41v-1.5h1.91v1.5h4.07V28.07h1.9v1.59h3.27v1.61h-3.27v1.21H167v1.61h-2.79v1.33h3.66V37h-6.75v1.3h5.13c.3,0,.45.14.45.41v6.06h1.16v1.6h-1.16v1.23a1.85,1.85,0,0,1-.89,1.67c-.79.47-2.15.53-4.09.2l-.1-2c1.44.36,2.33.43,2.67.2a.93.93,0,0,0,.51-.81v-.51H155.6Zm3.57-9.64h-3.42c-.1,0-.15,0-.15.14v1.55h3.57Zm0,4.87V43.21H155.6v1.58Zm3.1-13.52H158.2v1.21h4.07Zm0,4.15V34.09H158.2v1.33Zm-1.19,6.19h3.68V40.06c0-.09-.06-.14-.17-.14h-3.51Zm3.68,3.18V43.21h-3.68v1.58Z"/><path class="cls-6" d="M174,34.39h-1.64a27.41,27.41,0,0,1-.82,4.1l-2-.27a25.92,25.92,0,0,0,1.18-8.12V28.89h2V30.1c0,.56-.06,1.33-.12,2.3H174V28.07h2.1V32.4h2.12v2H176.1V40c.72-.41,1.35-.78,1.9-1.12l1.2,1.62a28.37,28.37,0,0,1-3.1,1.66v7.5H174V43.14c-1.08.44-2.17.87-3.3,1.3l-1.13-1.8c1.8-.61,3.27-1.15,4.43-1.62Zm11.29-1.57c-.11,1-.25,1.86-.41,2.73q-1.11,4.71-6,9.52L177.07,44A24.63,24.63,0,0,0,182,38a16.14,16.14,0,0,0,1.29-5.14h-1.75a21,21,0,0,1-2.41,4.87l-2-.75a19.46,19.46,0,0,0,3.43-8.8l2.07.27c-.18.87-.34,1.67-.5,2.41h9.47a.89.89,0,0,1,.41.1c.24.13.36.48.36,1q0,5.11-.12,9.08-.23,6.6-2.53,8.11c-.94.62-2.75.58-5.41-.12l-.09-2.32c2.27.73,3.71.89,4.3.48a4,4,0,0,0,1.13-1.78,18.6,18.6,0,0,0,.53-4.67q.24-7.43,0-7.76a.28.28,0,0,0-.26-.16h-1a24.63,24.63,0,0,1-2.21,9.4,18.46,18.46,0,0,1-6.08,6.72l-1.66-1.46q7.58-4.18,7.86-14.66Z"/><polygon class="cls-6" points="142.99 44.49 121.48 44.49 121.8 43.29 143.31 43.29 142.99 44.49"/><polygon class="cls-6" points="142.34 46.89 120.83 46.89 121.15 45.69 142.66 45.69 142.34 46.89"/><polygon class="cls-6" points="141.7 49.29 120.18 49.29 120.5 48.09 142.02 48.09 141.7 49.29"/><path class="cls-6" d="M96.61,32.79a1,1,0,0,0-.07-.89,1,1,0,0,0-.86-.29,1.74,1.74,0,0,0-1,.26,1.65,1.65,0,0,0-.52.92l-.74,3.07H86.1l.31-1.48a7.42,7.42,0,0,1,3.27-4.74q2.37-1.39,7-1.39,4.35,0,6.12,1.36t1,4.13Q103,37,96.28,42.18l-2,1.57a24.4,24.4,0,0,0-3.74,3.44,6.78,6.78,0,0,0-.72,1.19H100l-1.12,4.2H81.49l1.05-3.92a7.58,7.58,0,0,1,1.58-2.9,29.92,29.92,0,0,1,4.3-3.91l2-1.55c3.52-2.73,5.41-4.61,5.69-5.66Z"/><polygon class="cls-6" points="108.42 52.57 109.95 46.89 99.39 46.89 100.35 43.29 110.88 28.75 120.88 28.75 117.31 42.09 111.28 42.09 114.59 32.57 113.88 32.57 106.84 43.29 120.52 43.29 119.56 46.89 116.02 46.89 114.5 52.57 108.42 52.57"/><path class="cls-6" d="M122.12,42.09l3.57-13.34h6.49l-1.71,6.4h.1a6.43,6.43,0,0,1,2.25-1.48,7.9,7.9,0,0,1,2.84-.48,4.25,4.25,0,0,1,3,.82,2.35,2.35,0,0,1,.41,2.44l-1.51,5.64H131l1.14-4.25c.11-.44.11-.74,0-.9a1.16,1.16,0,0,0-.86-.23,1.59,1.59,0,0,0-1,.27,1.54,1.54,0,0,0-.52.86l-1.14,4.25Z"/></svg>