<?xml version="1.0" encoding="utf-8"?>
<!-- Generator: Adobe Illustrator 22.1.0, SVG Export Plug-In . SVG Version: 6.00 Build 0)  -->
<svg version="1.1" id="圖層_1" xmlns="http://www.w3.org/2000/svg" xmlns:xlink="http://www.w3.org/1999/xlink" x="0px" y="0px"
	 viewBox="0 0 142 142" style="enable-background:new 0 0 142 142;" xml:space="preserve">
<style type="text/css">
	.st0{fill:none;stroke:#D6000F;stroke-width:2;stroke-linecap:round;stroke-miterlimit:10;}
	.st1{fill:none;stroke:#D6000F;stroke-width:0.75;stroke-linecap:round;stroke-miterlimit:10;}
	.st2{fill:none;stroke:#F6B42C;stroke-width:2;stroke-linecap:round;stroke-miterlimit:10;}
	.st3{fill:none;stroke:#FFFFFF;stroke-width:2;stroke-linecap:round;stroke-miterlimit:10;}
	.st4{fill:none;stroke:#FFFFFF;stroke-width:0.75;stroke-linecap:round;stroke-miterlimit:10;}
	.st5{fill:#D6000F;}
	.st6{fill:#FFFFFF;}
	.st7{clip-path:url(#SVGID_2_);fill:#FFFFFF;}
</style>
<g>
	<g>
		
			<text transform="matrix(1 0 0 1 654.4778 18.9814)" class="st5" style="font-family:'MicrosoftJhengHeiBold'; font-size:21.6717px; letter-spacing:2;">是什麼?</text>
	</g>
	<g>
		<g>
			<g>
				<g>
					<text transform="matrix(1 0 0 1 534.748 23.52)"><tspan x="0" y="0" style="fill:#9D9D9E; font-family:'Avenir-MediumOblique'; font-size:32.9138px; letter-spacing:-1;">Fa</tspan><tspan x="32.7" y="0" style="fill:#9D9D9E; font-family:'Avenir-MediumOblique'; font-size:32.9138px;">stag</tspan></text>
					<text transform="matrix(1 0 0 1 534.748 23.52)"><tspan x="0" y="0" class="st5" style="font-family:'Avenir-MediumOblique'; font-size:32.9138px; letter-spacing:-1;">Fa</tspan><tspan x="32.7" y="0" class="st5" style="font-family:'Avenir-MediumOblique'; font-size:32.9138px;">stag</tspan></text>
				</g>
				<g>
					
						<text transform="matrix(0.95 0 -0.1187 0.9929 415.601 21.8791)" style="fill:#9D9D9E; font-family:'NewGothic-Bold'; font-size:29.3994px;">智慧標籤</text>
					
						<text transform="matrix(0.95 0 -0.1187 0.9929 415.601 21.8791)" class="st5" style="font-family:'NewGothic-Bold'; font-size:29.3994px;">智慧標籤</text>
				</g>
			</g>
		</g>
	</g>
	<path class="st0" d="M409.5,37.3c-14.7,0-26.8-12-26.8-26.8v0c0-14.7,12-26.8,26.8-26.8h279.7"/>
	<path class="st1" d="M409.8,33.4c-12.5,0-22.7-10.2-22.7-22.7v0c0-12.5,10.2-22.7,22.7-22.7h237"/>
	<line class="st2" x1="641.7" y1="37.3" x2="414.3" y2="37.3"/>
	<path class="st0" d="M740.5-16.3c14.7,0,26.8,12,26.8,26.8v0c0,14.7-12,26.8-26.8,26.8h-93.8"/>
	<path class="st1" d="M739.9-12.4c12.6,0,22.9,10.3,22.9,22.9v0c0,12.6-10.3,22.9-22.9,22.9h-78.7"/>
	<line class="st2" x1="695" y1="-16.3" x2="735.5" y2="-16.3"/>
</g>
<g>
	<g>
		<g>
			<g>
				
					<text transform="matrix(0.9559 0 -0.1195 0.9928 504.101 99.2301)" style="fill:#9D9D9E; font-family:'NewGothic-Bold'; font-size:31.4868px; letter-spacing:1;">感應   </text>
				<g>
					
						<text transform="matrix(0.9559 0 -0.1195 0.9928 504.101 99.2301)" class="st5" style="font-family:'NewGothic-Bold'; font-size:31.4868px; letter-spacing:1;">感應   </text>
				</g>
			</g>
		</g>
		<g>
			
				<text transform="matrix(1.0062 0 -0.1195 0.9928 566.931 102.6556)" style="fill:#9D9D9E; font-family:'Avenir-MediumOblique'; font-size:47.8063px; letter-spacing:-2;">3</text>
			<g>
				
					<text transform="matrix(1.0062 0 -0.1195 0.9928 566.931 102.6556)" class="st5" style="font-family:'Avenir-MediumOblique'; font-size:47.8063px; letter-spacing:-2;">3</text>
			</g>
		</g>
		<g>
			
				<text transform="matrix(0.9559 0 -0.1195 0.9928 597.3813 99.2301)" style="fill:#9D9D9E; font-family:'NewGothic-Bold'; font-size:31.4868px; letter-spacing:1;">步驟</text>
			<g>
				
					<text transform="matrix(0.9559 0 -0.1195 0.9928 597.3813 99.2301)" class="st5" style="font-family:'NewGothic-Bold'; font-size:31.4868px; letter-spacing:1;">步驟</text>
			</g>
		</g>
	</g>
	<path class="st0" d="M484.4,111.5c-14.7,0-26.8-12-26.8-26.8v0c0-14.7,12-26.8,26.8-26.8h149.8"/>
	<path class="st1" d="M484.7,107.6c-12.5,0-22.7-10.2-22.7-22.7v0c0-12.5,10.2-22.7,22.7-22.7h107.1"/>
	<line class="st2" x1="586.7" y1="111.5" x2="489.3" y2="111.5"/>
	<path class="st0" d="M685.6,58c14.7,0,26.8,12,26.8,26.8v0c0,14.7-12,26.8-26.8,26.8h-93.8"/>
	<path class="st1" d="M684.9,61.8c12.6,0,22.9,10.3,22.9,22.9v0c0,12.6-10.3,22.9-22.9,22.9h-78.7"/>
	<line class="st2" x1="640" y1="58" x2="680.5" y2="58"/>
</g>
<g>
	<g>
		
			<text transform="matrix(1 0 0 1 652.5409 -79.0186)" class="st6" style="font-family:'MicrosoftJhengHeiBold'; font-size:21.6717px; letter-spacing:2;">如何獲得?</text>
	</g>
	<g>
		<g>
			<g>
				<g>
					<text transform="matrix(1 0 0 1 544.7479 -74.48)"><tspan x="0" y="0" style="fill:#9D9D9E; font-family:'Avenir-MediumOblique'; font-size:32.9138px; letter-spacing:-1;">Fa</tspan><tspan x="32.7" y="0" style="fill:#9D9D9E; font-family:'Avenir-MediumOblique'; font-size:32.9138px;">stag</tspan></text>
					<text transform="matrix(1 0 0 1 544.7479 -74.48)"><tspan x="0" y="0" class="st6" style="font-family:'Avenir-MediumOblique'; font-size:32.9138px; letter-spacing:-1;">Fa</tspan><tspan x="32.7" y="0" class="st6" style="font-family:'Avenir-MediumOblique'; font-size:32.9138px;">stag</tspan></text>
				</g>
				<g>
					
						<text transform="matrix(0.95 0 -0.1187 0.9929 425.601 -76.1209)" style="fill:#9D9D9E; font-family:'NewGothic-Bold'; font-size:29.3994px;">智慧標籤</text>
					
						<text transform="matrix(0.95 0 -0.1187 0.9929 425.601 -76.1209)" class="st6" style="font-family:'NewGothic-Bold'; font-size:29.3994px;">智慧標籤</text>
				</g>
			</g>
		</g>
	</g>
	<path class="st3" d="M419.5-60.7c-14.7,0-26.8-12-26.8-26.8v0c0-14.7,12-26.8,26.8-26.8h279.7"/>
	<path class="st4" d="M419.8-64.6c-12.5,0-22.7-10.2-22.7-22.7v0c0-12.5,10.2-22.7,22.7-22.7h237"/>
	<line class="st2" x1="651.7" y1="-60.7" x2="424.3" y2="-60.7"/>
	<path class="st3" d="M750.5-114.3c14.7,0,26.8,12,26.8,26.8v0c0,14.7-12,26.8-26.8,26.8h-93.8"/>
	<path class="st4" d="M749.9-110.4c12.6,0,22.9,10.3,22.9,22.9v0c0,12.6-10.3,22.9-22.9,22.9h-78.7"/>
	<line class="st2" x1="705" y1="-114.3" x2="745.5" y2="-114.3"/>
</g>
<g>
	<g>
		<g>
			<g>
				
					<text transform="matrix(0.9559 0 -0.1195 0.9928 519.8172 202.1173)" style="fill:#9D9D9E; font-family:'NewGothic-Bold'; font-size:31.4868px; letter-spacing:1;">四大特點</text>
				<g>
					
						<text transform="matrix(0.9559 0 -0.1195 0.9928 519.8172 202.1173)" class="st6" style="font-family:'NewGothic-Bold'; font-size:31.4868px; letter-spacing:1;">四大特點</text>
				</g>
			</g>
		</g>
	</g>
	<path class="st3" d="M484.4,215.3c-14.7,0-26.8-12-26.8-26.8v0c0-14.7,12-26.8,26.8-26.8h149.8"/>
	<path class="st4" d="M484.7,211.4c-12.5,0-22.7-10.2-22.7-22.7v0c0-12.5,10.2-22.7,22.7-22.7h107.1"/>
	<line class="st2" x1="586.7" y1="215.3" x2="489.3" y2="215.3"/>
	<path class="st3" d="M685.6,161.7c14.7,0,26.8,12,26.8,26.8v0c0,14.7-12,26.8-26.8,26.8h-93.8"/>
	<path class="st4" d="M684.9,165.6c12.6,0,22.9,10.3,22.9,22.9v0c0,12.6-10.3,22.9-22.9,22.9h-78.7"/>
	<line class="st2" x1="640" y1="161.7" x2="680.5" y2="161.7"/>
</g>
<g>
	<path id="hand_1_" class="st5" d="M98.2-63.4c-0.8-1.3-2.7-2.2-4.6-2.2c-1.1,0-2.6,0.3-4,1.5c-0.9,0.8-1.5,1.4-2.4,2.2
		c-1.8,1.7-4.8,4.4-14.4,13.2l-11.6,0c-3.4-0.1-5.8-0.7-7.2-1.8c-1.3-1.1-1.2-2.5-1.2-3.1H63c2.5,0,4.5,0,4.8,0
		c5.6,0,7.9-4.7,8.3-6.6c0-0.1,0-0.2-0.1-0.2c-0.1-0.1-0.2-0.1-0.3-0.1H35.2c-0.1,0-0.2,0.1-0.3,0.1L17.5-46.9
		c-0.1,0.1-0.1,0.3,0,0.4l17.7,13.7c0.1,0.1,0.2,0.1,0.3,0.1c0.1,0,0.2,0,0.3-0.1l9.6-7.5h0.9c0,0,0.1,0,0.1,0l30.4,0
		c0.1,0,0.2,0,0.3-0.1c0.2-0.2,17.5-16.6,20.6-19.7C98.7-61.1,98.9-62.3,98.2-63.4z"/>
	<g id="present_1_">
		<path id="bow_1_" class="st5" d="M75.3-124.7c-1.5-1.1-3.3-1.7-5.1-1.7c-3.3,0-6.5,1.8-9,4.9c-0.6,0.8-1.2,1.6-1.7,2.5
			c-0.5-0.9-1-1.7-1.7-2.5c-2.5-3.1-5.7-4.9-9-4.9c-1.8,0-3.6,0.6-5.1,1.7c-2.9,2.1-4.1,5.7-3,9.1c1.3,3.9,5.8,8.2,14.8,8.2
			c1.3,0,6.7,0,8,0h0c9,0,13.5-4.2,14.8-8.2C79.5-119,78.3-122.6,75.3-124.7z M55.5-111.8c-6.6,0-9.9-2.8-10.6-5.1
			c-0.5-1.6,0-3.2,1.4-4.2c0.8-0.6,1.7-0.9,2.6-0.9c3.6,0,7.6,4.2,8.3,10.1C56.6-111.8,56.1-111.8,55.5-111.8z M74.2-116.9
			c-0.8,2.4-4,5.1-10.6,5.1h0c-0.5,0-1.1,0-1.7-0.1c0.8-5.9,4.7-10.1,8.3-10.1c0.9,0,1.8,0.3,2.6,0.9
			C74.2-120.1,74.7-118.5,74.2-116.9z"/>
		<path id="box_1_" class="st5" d="M86.2-109.1H32.8c-1.2,0-2.2,1-2.2,2.2v9.6c0,1.2,1,2.2,2.2,2.2h0.2v29.3c0,1.2,1,2.2,2.2,2.2
			h48.5c1.2,0,2.2-1,2.2-2.2v-29.3h0.2c1.2,0,2.2-1,2.2-2.2v-9.6C88.4-108.2,87.4-109.1,86.2-109.1z M84-99.5h-0.2H61.7v-5.2H84
			V-99.5z M35-104.7h22.3v5.2H35.3H35V-104.7z M37.5-95.1h19.9V-68H37.5V-95.1z M61.7-68v-27.1h19.9V-68H61.7z"/>
	</g>
</g>
<g>
	<path class="st5" d="M62.8-73.6c-0.9-0.4-2.6-0.9-5-1.5c-3-0.7-3.8-1.2-4.1-1.4c-0.4-0.4-0.6-0.8-0.6-1.4c0-0.7,0.3-1.3,0.9-1.8
		c0.7-0.5,1.8-0.8,3.4-0.8c1.5,0,2.7,0.3,3.4,0.9c0.7,0.6,1.1,1.5,1.3,2.7l0.1,0.7l4.2-0.3l0-0.7c-0.1-1.4-0.5-2.7-1.2-3.9
		c-0.8-1.1-1.8-2-3.2-2.6c-0.4-0.2-0.8-0.3-1.3-0.4v-3H55v2.8c-0.7,0.1-1.4,0.3-2,0.6c-1.4,0.6-2.4,1.4-3.1,2.5
		c-0.7,1.1-1.1,2.3-1.1,3.5c0,1.2,0.3,2.2,0.9,3.1c0.6,0.9,1.5,1.7,2.6,2.3c0.9,0.5,2.3,0.9,4.4,1.4c2.5,0.6,3.5,0.9,3.9,1.1
		c0.8,0.3,1.4,0.7,1.7,1.1c0.3,0.4,0.5,0.9,0.5,1.4c0,0.5-0.2,1-0.5,1.5c-0.3,0.5-0.9,0.8-1.6,1.1c-0.8,0.3-1.7,0.5-2.7,0.5
		c-1.2,0-2.2-0.2-3.1-0.6c-0.9-0.4-1.5-0.9-1.9-1.5c-0.4-0.6-0.7-1.4-0.8-2.4L52-69.4l-4.1,0.4l0,0.7c0,1.6,0.5,3.1,1.3,4.4
		c0.8,1.3,2,2.3,3.5,2.9c0.7,0.3,1.4,0.5,2.2,0.7v3h5.6v-3c0.7-0.2,1.4-0.4,2-0.7c1.4-0.6,2.5-1.5,3.2-2.7c0.7-1.2,1.1-2.4,1.1-3.7
		c0-1.3-0.4-2.5-1-3.6C65.2-72.1,64.2-73,62.8-73.6z"/>
	<g>
		<path class="st5" d="M85-85.4l3.4-1c-2-6.7-6.3-12.7-12.1-16.8l-2.1,2.9C79.4-96.6,83.2-91.4,85-85.4z"/>
		<path class="st5" d="M27.9-86.3l3.5,1c1.7-5.8,5.4-11.1,10.4-14.7l-2.1-2.9C34-98.8,29.9-92.9,27.9-86.3z"/>
		<path class="st5" d="M44.9-50.8l-1.7,3.2c4.6,2.5,9.7,3.8,15,3.8c5.1,0,10.1-1.2,14.6-3.6l-1.7-3.2C63.1-46.4,52.9-46.5,44.9-50.8
			z"/>
		<path class="st5" d="M26.8-66.2c4.5,0,8.2-3.7,8.2-8.2c0-4.5-3.7-8.2-8.2-8.2s-8.2,3.7-8.2,8.2C18.6-69.9,22.3-66.2,26.8-66.2z"/>
		<path class="st5" d="M31.9-64.5H21.7c-4.8,0-8.6,3.9-8.6,8.6v9.8h27.4v-9.8C40.5-60.6,36.6-64.5,31.9-64.5z"/>
		<path class="st5" d="M81-74.4c0,4.5,3.7,8.2,8.2,8.2c4.5,0,8.2-3.7,8.2-8.2c0-4.5-3.7-8.2-8.2-8.2C84.7-82.6,81-78.9,81-74.4z"/>
		<path class="st5" d="M94.3-64.5H84.1c-4.8,0-8.6,3.9-8.6,8.6v9.8h27.4v-9.8C102.9-60.6,99-64.5,94.3-64.5z"/>
		<path class="st5" d="M58-112.8c4.5,0,8.2-3.7,8.2-8.2c0-4.5-3.7-8.2-8.2-8.2c-4.5,0-8.2,3.7-8.2,8.2
			C49.8-116.5,53.5-112.8,58-112.8z"/>
		<path class="st5" d="M71.7-102.4c0-4.8-3.9-8.6-8.6-8.6H52.9c-4.8,0-8.6,3.9-8.6,8.6v9.8h27.4V-102.4z"/>
	</g>
</g>
<g>
	<path class="st5" d="M238-126.6c-0.3-1.5-1.6-2.6-3.2-2.6h-13.5h-5h-24.9c-0.3,0-0.5,0.1-0.8,0.1l0,0c-0.1,0-0.1,0-0.1,0.1
		c-0.2,0.1-0.3,0.1-0.5,0.2c-0.2,0.1-0.3,0.2-0.4,0.3c-0.1,0.1-0.3,0.2-0.4,0.3c-0.1,0.1-0.3,0.3-0.4,0.4c-0.1,0.1-0.2,0.2-0.2,0.3
		c-0.2,0.3-0.3,0.6-0.3,0.9c0,0,0,0.1,0,0.1c0,0.2-0.1,0.4-0.1,0.7v25.7v11.5v24.6V-51c0,0.2,0,0.5,0.1,0.7c0.3,1.5,1.6,2.6,3.2,2.6
		h43.3c1.6,0,2.9-1.1,3.2-2.6c0-0.2,0.1-0.4,0.1-0.7v-13.1v-5.4c-0.8-0.4-1.6-0.7-2.3-1.1c-1.3-0.7-2.7-1.5-4.1-2.4v4.9v3.9h-37.2
		v-3.9v-22.4V-104v-15h2.6h15.3h12.8h6.5v15v16.8c2.2,0.1,4.3,0.9,6.4,1.8v-14.9V-126C238.1-126.2,238.1-126.4,238-126.6z
		 M207.2-57.5h12v4.2h-12V-57.5z"/>
	<path class="st5" d="M253.8-68.4l4.2,2.8l-1.6,2.4l13.1,8.9l12.2-17.9l-13.1-8.9l-1.4,2.1l-3.1-2.5c0,0-3.2-8.3-6.8-11.8
		c-3.7-3.5-15-6-15-6s0.2,8.5,0.2,15.8c-0.7,7.9-13.4-5.1-16.2-0.1c-1.6,3.2,5.2,7.2,10,9.9C241-71,253.8-68.4,253.8-68.4z
		 M263.2-64.4l6.8-9.9l5.2,3.5l-6.8,9.9L263.2-64.4z"/>
	<g>
		<path class="st5" d="M221.1-88.7h-16c-1.9,0-3.4-1.5-3.4-3.4v-16c0-1.9,1.5-3.4,3.4-3.4h16c1.9,0,3.4,1.5,3.4,3.4v16
			C224.4-90.3,222.9-88.7,221.1-88.7z M205.1-108.8c-0.4,0-0.7,0.3-0.7,0.7v16c0,0.4,0.3,0.7,0.7,0.7h16c0.4,0,0.7-0.3,0.7-0.7v-16
			c0-0.4-0.3-0.7-0.7-0.7H205.1z"/>
	</g>
</g>
<g>
	<g>
		<path class="st5" d="M313.5-14.6h-52.3c-3.8,0-6.2,2.4-6.2,6.4v69.4c0,2.1,0.6,3.7,1.7,4.8c0.9,0.9,2.3,1.4,3.9,1.6v2h8.9v-1.9
			h34.7v1.9h8.9v-1.9h1c2.5,0,5.5-1.1,5.5-6.4V-8.2C319.7-12.1,317.3-14.6,313.5-14.6z M276.2,6.4v-17h37.7c1.3,0,2.3,1.1,2.3,2.4
			V6.4H276.2z M258.5,6.4V-8.2c0-1.3,1-2.4,2.3-2.4h11.9v17H258.5z M316.1,10.3v51.7c0,1.3-1,2.4-2.3,2.4h-53
			c-1.3,0-2.3-1.1-2.3-2.4V10.3H316.1z"/>
		<path class="st5" d="M287.1,54c10.4,0,18.8-8.5,18.8-18.8s-8.5-18.8-18.8-18.8s-18.8,8.5-18.8,18.8S276.7,54,287.1,54z
			 M287.1,17.7c9.6,0,17.4,7.8,17.4,17.4c0,9.6-7.8,17.4-17.4,17.4s-17.4-7.8-17.4-17.4C269.7,25.5,277.5,17.7,287.1,17.7z"/>
		<path class="st5" d="M287.1,50c8.2,0,14.9-6.7,14.9-14.9s-6.7-14.9-14.9-14.9s-14.9,6.7-14.9,14.9S278.9,50,287.1,50z M278.1,27.2
			c0.2-0.7,0.7-1.3,1.3-1.8c2.8-2.6,7-3.7,10.7-2.8c0.6,0.1,1.2,0.3,1.6,0.8c0.8,0.9,0.4,2.4-0.5,3.2c-1.7,1.6-4.4,1.4-6.7,2
			c-1.6,0.4-3.1,1.3-4.7,1.1c-0.4,0-0.9-0.2-1.2-0.4C278,28.8,277.9,27.9,278.1,27.2z"/>
		<circle class="st5" cx="308.1" cy="-2.9" r="4.6"/>
		<circle class="st5" cx="299.9" cy="-2.9" r="2.7"/>
		<circle class="st5" cx="293.5" cy="-2.9" r="2.7"/>
	</g>
	<circle class="st6" cx="252.6" cy="10.2" r="18.7"/>
	<g>
		<path class="st5" d="M252.4-5.1c-4.4,0-8.3,1.8-11.1,4.8l-16.4,2.4l-17.6,18.7l-0.2,24.6h3.1l0.2-23.1l15.7-16.6l12.4-1.8
			c-0.9,2-1.4,4.2-1.4,6.5c0,0.7,0.1,1.3,0.1,2l-10.1,1.5l3.8,2.9l-1.5,1.5l-3.7,3.7l-6.1,6.1l2.6,2.6l6.6-6.6l6.2-6.2c0,0,0,0,0,0
			c0.2-0.2,0.4-0.4,0.7-0.6c0.2-0.1,0.4-0.2,0.6-0.3c0,0,0.1,0,0.1-0.1c0.5-0.2,1.1-0.4,1.7-0.4c0,0,0,0,0,0l0,0c0.1,0,0.1,0,0.2,0
			c1.1,0,2,0.4,2.8,1.1c0.7,0.7,1.1,1.8,1.1,2.9c0,0.5-0.1,0.9-0.3,1.4l0,0l0,0c-0.1,0.3-0.3,0.6-0.4,0.9c0,0,0,0,0,0.1
			c-0.2,0.3-0.4,0.6-0.6,0.8l-17.9,17.9v0l-4.1,4.1h5.2l5-5l2.8-2.8L243.5,26c0.6-0.6,1.2-1.4,1.6-2.2c2.2,1.2,4.7,1.9,7.4,1.9
			c8.5,0,15.4-6.9,15.4-15.4S260.9-5.1,252.4-5.1z M252.4,22.4c-6.7,0-12.1-5.4-12.1-12.1s5.4-12.1,12.1-12.1
			c6.7,0,12.1,5.4,12.1,12.1S259.1,22.4,252.4,22.4z"/>
		<g>
			<g>
				<path class="st5" d="M245.9,17.4c0,0-0.1,0-0.1,0c-0.5-0.1-0.8-0.5-0.7-1l1.2-7.5c0.1-0.5,0.5-0.8,1-0.7c0.5,0.1,0.8,0.5,0.7,1
					l-1.2,7.5C246.7,17.1,246.4,17.4,245.9,17.4z"/>
			</g>
			<g>
				<path class="st5" d="M248.7,15.4c-0.5,0-0.9-0.4-0.9-0.9s0.4-0.9,0.9-0.9c1.9,0,3.4-1.5,3.4-3.4s-1.5-3.4-3.4-3.4
					c-0.8,0-1.5,0.2-2.1,0.7c-0.4,0.3-0.9,0.2-1.2-0.2c-0.3-0.4-0.2-0.9,0.2-1.2c0.9-0.7,2-1,3.1-1c2.9,0,5.2,2.3,5.2,5.2
					S251.5,15.4,248.7,15.4z"/>
			</g>
			<g>
				<path class="st5" d="M255,19.2c-0.3,0-0.6-0.1-0.7-0.4c-0.3-0.4-0.2-0.9,0.2-1.2c2.4-1.7,3.9-4.4,3.9-7.4c0-2.9-1.5-5.7-3.9-7.4
					c-0.4-0.3-0.5-0.8-0.2-1.2c0.3-0.4,0.8-0.5,1.2-0.2c2.9,2,4.6,5.3,4.6,8.8c0,3.5-1.7,6.8-4.7,8.8
					C255.4,19.2,255.2,19.2,255,19.2z"/>
			</g>
			<g>
				<path class="st5" d="M252.6,17.2c-0.3,0-0.6-0.2-0.8-0.4c-0.2-0.4-0.1-1,0.3-1.2c1.9-1.1,3.1-3.2,3.1-5.4c0-2.2-1.2-4.2-3.1-5.3
					c-0.4-0.2-0.6-0.8-0.3-1.2c0.2-0.4,0.8-0.6,1.2-0.3c2.4,1.4,3.9,4.1,3.9,6.9c0,2.8-1.5,5.4-4,6.9
					C252.9,17.2,252.8,17.2,252.6,17.2z"/>
			</g>
		</g>
	</g>
</g>
<g>
	<path class="st5" d="M287,60.8c-38,0-69,30.9-69,69c0,38,30.9,69,69,69c38,0,69-30.9,69-69C355.9,91.7,325,60.8,287,60.8z
		 M292.8,179.7l-13.2-16c-0.7-1.3-5.7-10.5-13.2-15.1c-1.1-0.7-1.6-1.5-1.6-2.4c0.1-0.9,0.8-1.8,1.7-2.2c1.4-0.6,5.8-2.5,14.4,9
		c0.4,0.5,0.9,0.7,1.5,0.5l2.7-0.7c0.6-0.2,1.1-0.7,1.1-1.4v-35.5c0-1.8,1.5-3.3,3.3-3.3c1.8,0,3.3,1.5,3.3,3.3v10.6c0,0,0,0,0,0.1
		v16.7c0,0.8,0.6,1.4,1.4,1.4s1.4-0.6,1.4-1.4v-1.2c0,0,0,0,0,0V136c0-1.8,1.5-3.3,3.3-3.3c1.8,0,3.3,1.5,3.3,3.3v6.4
		c0,0.8,0.6,1.4,1.4,1.4s1.4-0.6,1.4-1.4V136c0-1.8,1.5-3.3,3.3-3.3c1.8,0,3.3,1.5,3.3,3.3v6.4c0,0.8,0.6,1.4,1.4,1.4c0,0,0,0,0.1,0
		c0,0,0,0,0.1,0c0.8,0,1.4-0.6,1.4-1.4v-2.2c0-1.8,1.5-3.3,3.3-3.3c1.8,0,3.3,1.5,3.3,3.3v31.5l-2.1,7.9c0,0.1,0,0.3,0,0.4l0,2.9
		c-7.7,4.6-16.5,7.7-25.8,8.6v-10.9C293.1,180.3,293,179.9,292.8,179.7z M301.9,115.2c1.4-1.2,3.4-1,4.6,0.3c1.2,1.4,1,3.4-0.3,4.6
		l-0.4,0.3c0,0-0.1,0.1-0.1,0.1l-2,1.8c-1.4,1.2-3.4,1-4.6-0.3c-1.2-1.4-1-3.4,0.3-4.6l2.3-2C301.8,115.4,301.9,115.3,301.9,115.2z
		 M301.8,111.5v-8.7c0.1,0,0.2-0.1,0.3-0.2c0.7-0.5,1.5-0.8,2.4-0.7c0.9,0.1,1.6,0.6,2.2,1.2c1.1,1.4,0.8,3.5-0.6,4.6L301.8,111.5z
		 M308.1,126.7c0.8,0.9,1,2.1,0.6,3.2c-0.2,0-0.3,0-0.5,0c-1.9,0-3.6,0.9-4.7,2.2c-0.9-1.1-2.2-1.8-3.6-2.1c0.2-0.5,0.5-1,1-1.4
		l0.7-0.6c0.1-0.1,0.3-0.1,0.4-0.2l1.8-1.6C305.1,125.2,307,125.4,308.1,126.7z M299.8,125.8l-0.7,0.6c-1.1,1-1.8,2.3-2,3.7
		c-0.3,0.1-0.6,0.2-0.9,0.4v-7.6c0.2,0.4,0.4,0.7,0.7,1.1C297.7,124.9,298.7,125.5,299.8,125.8z M298.9,114l-1.4,1.2
		c-0.6,0.5-1,1.1-1.3,1.7V88.7c0-0.4-0.3-0.7-0.7-0.7h-25.9c-0.4,0-0.7,0.3-0.7,0.7v42.4c0,0.4,0.3,0.7,0.7,0.7h13.8v2.7
		c-0.1,0-0.3-0.1-0.4-0.1h-2.9c-0.8,0-1.4,0.6-1.4,1.4s0.6,1.4,1.4,1.4h2.9c0.1,0,0.3,0,0.4-0.1v2.9h-14.7c-1.4,0-2.6-1.1-2.6-2.6
		V84.1c0-1.4,1.1-2.6,2.6-2.6h27.7c1.4,0,2.6,1.1,2.6,2.6V114z M290.1,101.9h-4.8c-1,0-1.8,0.8-1.8,1.8v4.8c0,1,0.8,1.8,1.8,1.8h1.5
		c-2.1,1-3.6,3.1-3.6,5.6v14.5h-13.1v-41h24.5v23.3c-0.8-1.3-2.1-2.3-3.6-2.8c0.5-0.3,0.8-0.8,0.8-1.5v-4.8
		C291.9,102.7,291.1,101.9,290.1,101.9z M278.8,143h4.5v7.3l-0.7,0.2c-1.3-1.7-2.6-3.1-3.7-4.3C279,144.8,278.9,143.7,278.8,143z
		 M277.5,144.8c-0.8-0.7-1.5-1.3-2.2-1.8h2.1C277.4,143.4,277.5,144,277.5,144.8z M321.8,181.1l0-0.9l2.1-7.9c0-0.1,0-0.2,0-0.4
		v-31.7c0-3.4-2.8-6.1-6.1-6.1c-1.3,0-2.5,0.4-3.5,1.1c-0.3-1.8-1.4-3.4-2.9-4.3c0.7-2,0.3-4.3-1.2-6c-0.8-0.9-1.8-1.5-2.9-1.8
		l0.7-0.6c2.6-2.2,2.8-6.1,0.6-8.7c-0.8-0.9-1.8-1.5-2.9-1.8l2-1.7c2.7-2.1,3.2-5.9,1.1-8.6c-1-1.3-2.5-2.1-4.1-2.3
		c-1.1-0.1-2.1,0-3.1,0.4V84.1c0-3-2.4-5.4-5.4-5.4h-27.7c-3,0-5.4,2.4-5.4,5.4v23.6c-1.6-2.2-3.6-3-5.1-3.3c-2-0.5-4.2,0.2-5.5,1.7
		c-1.3,1.5-1.5,3.7-0.6,5.9c3.2,7.9,1.7,18.5,1.6,18.6c0,0.1,0,0.2,0,0.3l1.3,20.3l-5.2,7.2c-0.5,0.6-0.3,1.5,0.3,2
		c0.3,0.2,0.5,0.3,0.8,0.3c0.4,0,0.9-0.2,1.2-0.6l5.5-7.6c0.2-0.3,0.3-0.6,0.3-0.9l-1.3-20.7c0.2-1.5,1.5-11.8-1.8-20
		c-0.5-1.2-0.4-2.2,0.2-2.9c0.6-0.7,1.7-1,2.6-0.8c1.2,0.3,4,0.9,5.5,7.1c0,0.2,0.1,0.4,0.3,0.5v22.7c0,1.6,0.7,3,1.8,4
		c-1.7,0.9-2.8,2.6-3,4.4c-0.2,2,0.9,3.9,2.9,5.1c7.2,4.5,12.2,14,12.2,14.1c0,0.1,0.1,0.2,0.2,0.3l1.1,1.4
		c-0.1,0.1-0.2,0.2-0.3,0.3l-5.6,7.8c-0.5,0.6-0.3,1.5,0.3,2c0.3,0.2,0.5,0.3,0.8,0.3c0.4,0,0.9-0.2,1.2-0.6l5.3-7.4l0,0l9.9,12
		v10.6c-1.1,0.1-2.2,0.1-3.3,0.1c-34.2,0-62-27.8-62-62c0-34.2,27.8-62,62-62s62,27.8,62,62C349,151.1,338.2,169.9,321.8,181.1z"/>
	<path class="st5" d="M288,83.5h-10.8c-0.8,0-1.4,0.6-1.4,1.4c0,0.8,0.6,1.4,1.4,1.4H288c0.8,0,1.4-0.6,1.4-1.4
		C289.4,84.2,288.8,83.5,288,83.5z"/>
	<path class="st5" d="M279.9,102.9c0.4,0,0.8,0.4,0.8,0.8v4.8c0,0.4-0.4,0.8-0.8,0.8h-4.8c-0.4,0-0.8-0.4-0.8-0.8v-4.8
		c0-0.4,0.4-0.8,0.8-0.8H279.9 M279.9,101.9h-4.8c-1,0-1.8,0.8-1.8,1.8v4.8c0,1,0.8,1.8,1.8,1.8h4.8c1,0,1.8-0.8,1.8-1.8v-4.8
		C281.7,102.7,280.9,101.9,279.9,101.9L279.9,101.9z"/>
	<path class="st5" d="M279.9,93.1c0.4,0,0.8,0.4,0.8,0.8v4.8c0,0.4-0.4,0.8-0.8,0.8h-4.8c-0.4,0-0.8-0.4-0.8-0.8v-4.8
		c0-0.4,0.4-0.8,0.8-0.8H279.9 M279.9,92.1h-4.8c-1,0-1.8,0.8-1.8,1.8v4.8c0,1,0.8,1.8,1.8,1.8h4.8c1,0,1.8-0.8,1.8-1.8v-4.8
		C281.7,92.9,280.9,92.1,279.9,92.1L279.9,92.1z"/>
	<path class="st5" d="M290.1,93.1c0.4,0,0.8,0.4,0.8,0.8v4.8c0,0.4-0.4,0.8-0.8,0.8h-4.8c-0.4,0-0.8-0.4-0.8-0.8v-4.8
		c0-0.4,0.4-0.8,0.8-0.8H290.1 M290.1,92.1h-4.8c-1,0-1.8,0.8-1.8,1.8v4.8c0,1,0.8,1.8,1.8,1.8h4.8c1,0,1.8-0.8,1.8-1.8v-4.8
		C291.9,92.9,291.1,92.1,290.1,92.1L290.1,92.1z"/>
</g>
<g>
	<g>
		<g>
			<path class="st5" d="M68.7,70.7c-2.9,0-5.3-2.4-5.3-5.3c0-2.9,2.4-5.3,5.3-5.3c2.9,0,5.3,2.4,5.3,5.3
				C74,68.3,71.6,70.7,68.7,70.7z M68.7,61.5c-2.2,0-3.9,1.8-3.9,3.9s1.8,3.9,3.9,3.9c2.2,0,3.9-1.8,3.9-3.9S70.9,61.5,68.7,61.5z"
				/>
		</g>
		<g>
			<path class="st5" d="M68.7,75.3c-5.4,0-9.9-4.4-9.9-9.9s4.4-9.9,9.9-9.9c5.4,0,9.9,4.4,9.9,9.9S74.2,75.3,68.7,75.3z M68.7,56.9
				c-4.7,0-8.5,3.8-8.5,8.5s3.8,8.5,8.5,8.5c4.7,0,8.5-3.8,8.5-8.5S73.4,56.9,68.7,56.9z"/>
		</g>
		<g>
			<path class="st5" d="M68.7,79.9c-8,0-14.5-6.5-14.5-14.5s6.5-14.5,14.5-14.5c8,0,14.5,6.5,14.5,14.5S76.7,79.9,68.7,79.9z
				 M68.7,52.2c-7.2,0-13.1,5.9-13.1,13.1s5.9,13.1,13.1,13.1c7.2,0,13.1-5.9,13.1-13.1S76,52.2,68.7,52.2z"/>
		</g>
		<g>
			<path class="st5" d="M68.7,86.8c-11.8,0-21.4-9.6-21.4-21.4S56.9,44,68.7,44s21.4,9.6,21.4,21.4S80.5,86.8,68.7,86.8z M68.7,45.3
				c-11.1,0-20.1,9-20.1,20.1s9,20.1,20.1,20.1s20.1-9,20.1-20.1S79.8,45.3,68.7,45.3z"/>
		</g>
		<g>
			<path class="st5" d="M68.7,97.1C51.2,97.1,37,82.9,37,65.4s14.2-31.7,31.7-31.7s31.7,14.2,31.7,31.7S86.2,97.1,68.7,97.1z
				 M68.7,35c-16.8,0-30.4,13.6-30.4,30.4s13.6,30.4,30.4,30.4s30.4-13.6,30.4-30.4S85.5,35,68.7,35z"/>
		</g>
		<g>
			<path class="st5" d="M68.7,112.7c-26.1,0-47.3-21.2-47.3-47.3s21.2-47.3,47.3-47.3S116,39.3,116,65.4S94.8,112.7,68.7,112.7z
				 M68.7,19.4c-25.3,0-46,20.6-46,46s20.6,46,46,46s46-20.6,46-46S94,19.4,68.7,19.4z"/>
		</g>
	</g>
	<g>
		<defs>
			<path id="SVGID_1_" d="M117.6,118l-0.3-0.3l-7.7-8.3l-0.1-6.8c0.2-5.2,0.6-10.8,1-14.6c0.6-6.9-1.9-11.6-3.9-15.4l-0.2-0.3
				c-4.5-8.5-7.7-14.7-7.7-14.8c-0.1-0.2-0.2-0.4-0.4-0.5l-7.1-6c0,0,0,0,0,0V35.3c0-3.3-2.7-6-6-6H54.9c-3.3,0-6,2.7-6,6v58.7
				c0,3.3,2.7,6,6,6h21.4c-0.1,1.9,0.1,10.5,8,18.4l8.9,12.8c0.1,0.1,0.2,0.1,0.3,0.2c0.3,0.3,0.7,0.5,1,0.5c0.3,0,0.6-0.1,0.9-0.3
				c0.4-0.2,0.6-0.6,0.6-1c7-2.4,13.4-6.1,18.9-10.7l0.3,0.3c0.3,0.3,0.7,0.5,1.2,0.5c0.4,0,0.8-0.1,1.1-0.4
				C118.1,119.6,118.2,118.6,117.6,118z"/>
		</defs>
		<clipPath id="SVGID_2_">
			<use xlink:href="#SVGID_1_"  style="overflow:visible;"/>
		</clipPath>
		<rect x="-193.8" y="-233.8" class="st7" width="539.7" height="903.6"/>
	</g>
	<g>
		<path class="st5" d="M70.8,139.7c-38,0-69-30.9-69-69c0-38,30.9-69,69-69c38,0,69,30.9,69,69C139.8,108.8,108.8,139.7,70.8,139.7z
			 M70.8,8.7c-34.2,0-62,27.8-62,62c0,34.2,27.8,62,62,62s62-27.8,62-62C132.9,36.6,105,8.7,70.8,8.7z"/>
	</g>
	<g>
		<path class="st5" d="M109.6,102.6c0.2-5.2,0.6-10.8,1-14.6c0.6-6.9-1.9-11.6-3.9-15.4l-0.2-0.3c-4.5-8.5-7.7-14.7-7.7-14.8
			c-0.1-0.2-0.2-0.4-0.4-0.5l-7.1-6c0,0,0,0,0,0V35.3c0-3.3-2.7-6-6-6H54.9c-3.3,0-6,2.7-6,6v58.7c0,3.3,2.7,6,6,6h21.4
			c-0.1,1.9,0.1,10.5,8,18.4l8.9,12.8c0.1,0.1,0.2,0.1,0.3,0.2c0.9-0.3,1.7-0.5,2.6-0.8c0.1-0.4,0-0.8-0.2-1.2l-9-12.9
			c-0.1-0.1-0.1-0.1-0.2-0.2c-7.4-7.4-7.2-15.3-7.2-16.3h5.2c-0.1,1.9-0.1,3.5,0.1,4.3c0.5,2.5,4,8.1,7.1,10
			c0.3,0.2,0.5,0.2,0.8,0.2c0.5,0,1.1-0.3,1.4-0.8c0.4-0.7,0.2-1.7-0.5-2.2c-2.3-1.4-5.3-6.3-5.6-7.9c-0.3-1.4,0.2-8,0.6-11.9
			c0-0.4-0.1-0.8-0.4-1.2l-10.9-13c-1.9-2.4-2.5-5.1-1.3-6.6c0.3-0.4,0.7-0.6,1.2-0.6c1.4-0.1,3.4,1.1,5.2,2.9
			c6.7,6.9,12,10.4,13.3,11.2c1,1.3,3.3,4.4,3.9,6c0.3,0.8,1.2,1.2,2,0.9c0.8-0.3,1.2-1.2,0.9-2c-0.9-2.4-4.1-6.5-4.5-7
			c-0.1-0.2-0.3-0.3-0.4-0.4c0,0-1.8-1.1-4.7-3.4c0.7-0.6,2.3-1.5,4.8-1.9c0.4-0.1,0.7-0.5,0.7-0.9c-0.1-0.4-0.5-0.7-0.9-0.7
			c-3.1,0.4-5,1.7-5.8,2.4c-0.1-0.1-0.2-0.1-0.2-0.2V66.8c0.9-2.2,2.1-2.8,2.1-2.9c0.4-0.2,0.5-0.7,0.3-1.1
			c-0.2-0.4-0.7-0.5-1.1-0.4c0,0-0.7,0.3-1.4,1.2v-8.5l4.8,4.1c0.7,1.3,3.6,7.1,7.6,14.5l0.2,0.3c1.9,3.6,4.1,7.7,3.5,13.6
			c-0.3,3.8-0.8,9.5-1,14.8l0.1,7.4c0,0.4,0.2,0.8,0.4,1.1l8.1,8.7c0.8-0.7,1.6-1.4,2.4-2.1l-7.7-8.3L109.6,102.6z M83.6,70
			c-2.2-2-4.6-3-6.7-2.9c-1.4,0.1-2.6,0.7-3.5,1.8c-2.1,2.7-1.5,7,1.4,10.6l5.5,6.5H56.7V41h26.9V70z M88.2,74.5c-1-0.9-2-1.9-3-2.9
			V40.3c0-0.4-0.4-0.8-0.8-0.8H55.9c-0.4,0-0.8,0.4-0.8,0.8v46.6c0,0.4,0.4,0.8,0.8,0.8h25.7l3.7,4.4c-0.1,1-0.2,2.8-0.4,4.7h-30
			c-1.5,0-2.8-1.3-2.8-2.8V35.3c0-1.5,1.3-2.8,2.8-2.8h30.4c1.5,0,2.8,1.3,2.8,2.8V74.5z"/>
		<path class="st5" d="M76,34.7H64.1c-0.9,0-1.6,0.7-1.6,1.6c0,0.9,0.7,1.6,1.6,1.6H76c0.9,0,1.6-0.7,1.6-1.6
			C77.6,35.4,76.9,34.7,76,34.7z"/>
		<path class="st5" d="M67.3,93.6h5.5c0.9,0,1.6-0.7,1.6-1.6c0-0.9-0.7-1.6-1.6-1.6h-5.5c-0.9,0-1.6,0.7-1.6,1.6
			C65.7,92.9,66.4,93.6,67.3,93.6z"/>
	</g>
	<g>
		<defs>
			<path id="SVGID_3_" d="M56.7,86h23.6l-5.5-6.5c-2.9-3.6-3.5-7.8-1.4-10.6c0.9-1.1,2.1-1.7,3.5-1.8C79,67,81.4,68,83.6,70V41H56.7
				V86z"/>
		</defs>
		<clipPath id="SVGID_4_">
			<use xlink:href="#SVGID_3_"  style="overflow:visible;"/>
		</clipPath>
	</g>
	<g>
		<g>
			<path class="st5" d="M61.8,66.4c-0.1,0-0.1,0-0.2,0c-0.6-0.1-1-0.7-0.9-1.3l1.5-9.6c0.1-0.6,0.7-1,1.3-0.9c0.6,0.1,1,0.7,0.9,1.3
				l-1.5,9.6C62.8,66,62.3,66.4,61.8,66.4z"/>
		</g>
		<g>
			<path class="st5" d="M65.3,63.9c-0.6,0-1.1-0.5-1.1-1.1c0-0.6,0.5-1.1,1.1-1.1c2.4,0,4.4-2,4.4-4.4s-2-4.4-4.4-4.4
				c-1,0-1.9,0.3-2.7,0.9c-0.5,0.4-1.2,0.3-1.6-0.2c-0.4-0.5-0.3-1.2,0.2-1.6c1.2-0.9,2.6-1.3,4-1.3c3.7,0,6.7,3,6.7,6.7
				S69,63.9,65.3,63.9z"/>
		</g>
		<g>
			<path class="st5" d="M73.5,68.8c-0.4,0-0.7-0.2-0.9-0.5c-0.4-0.5-0.2-1.2,0.3-1.6c3.1-2.2,5-5.7,5-9.5c0-3.8-1.9-7.3-5-9.5
				c-0.5-0.4-0.6-1.1-0.3-1.6c0.4-0.5,1.1-0.6,1.6-0.3c3.7,2.6,6,6.8,6,11.3c0,4.5-2.2,8.8-6,11.4C73.9,68.7,73.7,68.8,73.5,68.8z"
				/>
		</g>
		<g>
			<path class="st5" d="M70.4,66.2c-0.4,0-0.8-0.2-1-0.6c-0.3-0.5-0.1-1.2,0.4-1.5c2.4-1.4,4-4.1,4-6.9c0-2.8-1.5-5.4-3.9-6.9
				c-0.5-0.3-0.7-1-0.4-1.5c0.3-0.5,1-0.7,1.5-0.4c3.1,1.8,5,5.2,5,8.8c0,3.6-1.9,7-5.1,8.8C70.8,66.1,70.6,66.2,70.4,66.2z"/>
		</g>
	</g>
</g>
</svg>
